<svg xmlns="http://www.w3.org/2000/svg" width="831.317" height="619.431" viewBox="0 0 831.317 619.431">
  <g id="Closed_Stores-rafiki" data-name="Closed Stores-rafiki" transform="translate(0 -55)">
    <g id="freepik--background-complete--inject-103" transform="translate(0 55)">
      <rect id="Rectangle_3548" data-name="Rectangle 3548" width="831.317" height="0.416" transform="translate(0 544.346)" fill="#ebebeb"/>
      <rect id="Rectangle_3549" data-name="Rectangle 3549" width="14.448" height="0.416" transform="translate(536.249 575.62)" fill="#ebebeb"/>
      <rect id="Rectangle_3550" data-name="Rectangle 3550" width="38.54" height="0.416" transform="translate(249.461 554.954)" fill="#ebebeb"/>
      <rect id="Rectangle_3551" data-name="Rectangle 3551" width="94.221" height="0.416" transform="translate(668.545 563.865)" fill="#ebebeb"/>
      <rect id="Rectangle_3552" data-name="Rectangle 3552" width="94.221" height="0.416" transform="translate(71.028 563.865)" fill="#ebebeb"/>
      <path id="Path_17864" data-name="Path 17864" d="M368.725,525.193H47.687A9.494,9.494,0,0,1,38.21,515.7V64.41A9.494,9.494,0,0,1,47.687,55H368.725a9.494,9.494,0,0,1,9.494,9.494V515.7A9.494,9.494,0,0,1,368.725,525.193ZM47.687,55.333a9.078,9.078,0,0,0-9.061,9.078V515.7a9.078,9.078,0,0,0,9.061,9.078H368.725A9.1,9.1,0,0,0,377.8,515.7V64.41a9.1,9.1,0,0,0-9.078-9.078Z" transform="translate(25.319 -55)" fill="#ebebeb"/>
      <path id="Path_17865" data-name="Path 17865" d="M585.048,525.193H263.994A9.51,9.51,0,0,1,254.5,515.7V64.41A9.51,9.51,0,0,1,263.994,55H585.048a9.494,9.494,0,0,1,9.46,9.411V515.7A9.494,9.494,0,0,1,585.048,525.193ZM263.994,55.333a9.1,9.1,0,0,0-9.078,9.078V515.7a9.1,9.1,0,0,0,9.078,9.078H585.048a9.1,9.1,0,0,0,9.078-9.078V64.41a9.1,9.1,0,0,0-9.078-9.078Z" transform="translate(168.64 -55)" fill="#ebebeb"/>
      <path id="Path_17866" data-name="Path 17866" d="M445.814,93.657c.466-10.79-6.069-19.12-16.626-20.866-3.242-4.772-8.845-7.731-15.978-7.731-11.14,0-22.645,7.2-28.847,17.208a32.388,32.388,0,0,0-21.747,13.3,10.991,10.991,0,0,0-3.492-.532,17.774,17.774,0,0,0-15.928,12.5,11.755,11.755,0,0,0-.366,5.088H451.2a18.024,18.024,0,0,0,2.394-5.088C455.491,100.59,452.115,94.888,445.814,93.657Z" transform="translate(227.087 -48.334)" fill="#f5f5f5"/>
      <path id="Path_17867" data-name="Path 17867" d="M140.575,109.794A16.626,16.626,0,0,0,126.16,91.738a16.078,16.078,0,0,0-13.816-6.651c-9.643,0-19.586,6.235-24.939,14.964A28.049,28.049,0,0,0,68.6,111.69a9.709,9.709,0,0,0-3.026-.466A15.4,15.4,0,0,0,51.74,121.981a10.059,10.059,0,0,0-.316,4.389H145.18a15.4,15.4,0,0,0,2.078-4.389C149,115.8,146.078,110.792,140.575,109.794Z" transform="translate(34.002 -35.076)" fill="#f5f5f5"/>
      <path id="Path_17868" data-name="Path 17868" d="M357.158,117.775a37.458,37.458,0,0,0-11.306,1.812,41.466,41.466,0,0,0-26.27-9.66C313.9,92,297.685,80,275.24,80c-21.5,0-43.561,10.99-59.356,27.666-1.264-.116-2.544-.166-3.874-.166-25.887,0-52.839,20.982-60.221,46.87a47.6,47.6,0,0,0-1.779,10.076H374.133a43.378,43.378,0,0,0,6.651-13.484C386.087,132.639,375.5,117.775,357.158,117.775Z" transform="translate(99.402 -38.434)" fill="#fafafa"/>
      <rect id="Rectangle_3553" data-name="Rectangle 3553" width="78.726" height="147.077" transform="translate(85.343 397.253)" fill="#e0e0e0"/>
      <rect id="Rectangle_3554" data-name="Rectangle 3554" width="60.437" height="34.034" transform="translate(94.487 365.247)" fill="#e0e0e0"/>
      <rect id="Rectangle_3555" data-name="Rectangle 3555" width="68.916" height="5.287" transform="translate(90.248 363.003)" fill="#e0e0e0"/>
      <path id="Path_17869" data-name="Path 17869" d="M378.7,242.58l98.777,33.485V475.049H378.7Z" transform="translate(250.939 69.297)" fill="#e0e0e0"/>
      <path id="Path_17870" data-name="Path 17870" d="M390.07,222.28l60.969,20.683V365.782H390.07Z" transform="translate(258.473 55.845)" fill="#e0e0e0"/>
      <rect id="Rectangle_3556" data-name="Rectangle 3556" width="253.635" height="282.332" transform="translate(431.221 262.23)" fill="#f5f5f5"/>
      <rect id="Rectangle_3557" data-name="Rectangle 3557" width="289.215" height="16.992" transform="translate(413.447 250.027)" fill="#f5f5f5"/>
      <rect id="Rectangle_3558" data-name="Rectangle 3558" width="266.104" height="16.992" transform="translate(424.986 341.621)" fill="#f5f5f5"/>
      <rect id="Rectangle_3559" data-name="Rectangle 3559" width="266.104" height="16.992" transform="translate(424.986 430.506)" fill="#f5f5f5"/>
      <path id="Path_17871" data-name="Path 17871" d="M196.92,149.96l137.716,55.682V536.422H196.92Z" transform="translate(130.486 7.924)" fill="#ebebeb"/>
      <path id="Path_17872" data-name="Path 17872" d="M212.77,116.22l85.01,34.367V354.775H212.77Z" transform="translate(140.988 -14.434)" fill="#ebebeb"/>
      <path id="Path_17873" data-name="Path 17873" d="M227.34,95.76l6.168,2.494v72.74H227.34Z" transform="translate(150.643 -27.991)" fill="#ebebeb"/>
      <path id="Path_17874" data-name="Path 17874" d="M251.434,212.11,71.57,252.894V495.24H251.434Z" transform="translate(47.425 49.106)" fill="#f0f0f0"/>
      <path id="Path_17875" data-name="Path 17875" d="M203.284,152.06,92.27,177.249V385.56H203.284Z" transform="translate(61.141 9.315)" fill="#f0f0f0"/>
      <path id="Path_17876" data-name="Path 17876" d="M142.144,114.11,136.79,117.2V266.141h5.354Z" transform="translate(90.642 -15.832)" fill="#f0f0f0"/>
      <path id="Path_17877" data-name="Path 17877" d="M111.694,126.39l-5.354,3.092V278.438h5.354Z" transform="translate(70.464 -7.695)" fill="#f0f0f0"/>
      <rect id="Rectangle_3560" data-name="Rectangle 3560" width="161.824" height="204.171" transform="translate(213.931 340.175)" fill="#f5f5f5"/>
      <rect id="Rectangle_3561" data-name="Rectangle 3561" width="124.249" height="47.252" transform="translate(232.719 295.733)" fill="#f5f5f5"/>
      <rect id="Rectangle_3562" data-name="Rectangle 3562" width="141.673" height="7.349" transform="translate(224.007 292.623)" fill="#f5f5f5"/>
      <rect id="Rectangle_3563" data-name="Rectangle 3563" width="101.47" height="313.473" transform="translate(514.269 230.873)" fill="#f0f0f0"/>
      <rect id="Rectangle_3564" data-name="Rectangle 3564" width="77.911" height="72.541" transform="translate(526.041 162.672)" fill="#f0f0f0"/>
      <rect id="Rectangle_3565" data-name="Rectangle 3565" width="88.834" height="11.273" transform="translate(520.587 157.884)" fill="#f0f0f0"/>
    </g>
    <g id="freepik--Shadow--inject-103" transform="translate(93.29 636.789)">
      <ellipse id="freepik--path--inject-103" cx="322.368" cy="18.821" rx="322.368" ry="18.821" fill="#f5f5f5"/>
    </g>
    <g id="freepik--store-1--inject-103" transform="translate(76.331 319.442)">
      <rect id="Rectangle_3566" data-name="Rectangle 3566" width="267.867" height="275.033" transform="translate(270.095 279.904) rotate(180)" fill="#4dc452"/>
      <rect id="Rectangle_3567" data-name="Rectangle 3567" width="267.867" height="275.033" transform="translate(270.095 279.904) rotate(180)" fill="#fff" opacity="0.4"/>
      <path id="Path_17878" data-name="Path 17878" d="M.017,0H272.306V10.757a3.824,3.824,0,0,1-3.824,3.824H3.824A3.824,3.824,0,0,1,0,10.757V0Z" transform="translate(272.323 279.888) rotate(180)" fill="#4dc452"/>
      <path id="Path_17879" data-name="Path 17879" d="M45.927,252.42H318.216v3.475a3.824,3.824,0,0,1-3.824,3.824H49.734a3.824,3.824,0,0,1-3.824-3.824V252.42Z" transform="translate(-45.91 -188.625)" fill="#263238"/>
      <path id="Path_17880" data-name="Path 17880" d="M.017,0H272.306V3.475A3.824,3.824,0,0,1,268.482,7.3H3.824A3.824,3.824,0,0,1,0,3.475V0Z" transform="translate(272.323 7.299) rotate(180)" fill="#263238"/>
      <path id="Path_17881" data-name="Path 17881" d="M76.059,246.843v-6.318H90.54V253.46a29.314,29.314,0,0,1-7.365,3.857,24.938,24.938,0,0,1-7.582,1.031,18.488,18.488,0,0,1-8.812-1.846,12.653,12.653,0,0,1-5.271-5.487,18.073,18.073,0,0,1-1.879-8.313,17.375,17.375,0,0,1,2.062-8.646,13.2,13.2,0,0,1,6-5.57,19.453,19.453,0,0,1,8.313-1.48,23.461,23.461,0,0,1,7.515.914,9.809,9.809,0,0,1,4.14,2.826,12.519,12.519,0,0,1,2.511,4.805l-9.045,1.663a4.838,4.838,0,0,0-1.9-2.627,5.969,5.969,0,0,0-3.325-.914,6.119,6.119,0,0,0-4.988,2.145,10.275,10.275,0,0,0-1.829,6.784,10.641,10.641,0,0,0,1.846,7.033,6.5,6.5,0,0,0,5.171,2.112A9.877,9.877,0,0,0,79.1,251.3a16.279,16.279,0,0,0,3.325-1.563v-2.843Z" transform="translate(-36.821 -205.477)" fill="#4dc452"/>
      <path id="Path_17882" data-name="Path 17882" d="M81.64,257.64V227.3H97.2a22.7,22.7,0,0,1,6.651.732,7.149,7.149,0,0,1,3.708,2.777,8.579,8.579,0,0,1-2.627,12.237,11.455,11.455,0,0,1-3.325,1.2,9.028,9.028,0,0,1,2.427,1.131,8.746,8.746,0,0,1,1.513,1.663,12.921,12.921,0,0,1,1.313,1.9l4.539,8.8H100.893l-4.988-9.278a7.148,7.148,0,0,0-1.663-2.344,3.973,3.973,0,0,0-2.294-.7h-.831v12.32Zm9.427-18.056h3.957a13.7,13.7,0,0,0,2.477-.416,2.461,2.461,0,0,0,1.53-.948,2.876,2.876,0,0,0,.582-1.762,2.826,2.826,0,0,0-.931-2.261,5.67,5.67,0,0,0-3.492-.781H91.067Z" transform="translate(-22.234 -205.283)" fill="#4dc452"/>
      <path id="Path_17883" data-name="Path 17883" d="M100.288,242.708A14.365,14.365,0,0,1,115.95,227q7.582,0,11.638,4.073a15.3,15.3,0,0,1,4.107,11.389,18.6,18.6,0,0,1-1.8,8.729,12.72,12.72,0,0,1-5.171,5.3,17.092,17.092,0,0,1-8.43,1.9,19.487,19.487,0,0,1-8.5-1.663,12.9,12.9,0,0,1-5.47-5.187,17.308,17.308,0,0,1-2.045-8.829Zm9.377,0a10.209,10.209,0,0,0,1.663,6.651,6.468,6.468,0,0,0,9.327,0c1.114-1.313,1.663-3.674,1.663-7.066a9.444,9.444,0,0,0-1.663-6.268,5.9,5.9,0,0,0-4.689-1.962,5.719,5.719,0,0,0-4.556,2,10.225,10.225,0,0,0-1.746,6.7Z" transform="translate(-9.924 -205.515)" fill="#4dc452"/>
      <path id="Path_17884" data-name="Path 17884" d="M142.828,245.41l8.213,2.477a14.964,14.964,0,0,1-2.61,5.786,11.34,11.34,0,0,1-4.423,3.492,16.626,16.626,0,0,1-6.651,1.18,19.419,19.419,0,0,1-8.08-1.446,12.686,12.686,0,0,1-5.4-4.988,17.025,17.025,0,0,1-2.278-9.261q0-7.532,4.007-11.638a18.156,18.156,0,0,1,20.334-1.663,13.634,13.634,0,0,1,4.888,7.116l-8.313,1.846a7.365,7.365,0,0,0-.914-2.028,5.287,5.287,0,0,0-4.472-2.228,5.5,5.5,0,0,0-4.888,2.56,10.941,10.941,0,0,0-1.28,5.969c0,3.325.515,5.67,1.53,6.917a6.035,6.035,0,0,0,8.313.366,9.461,9.461,0,0,0,2.028-4.456Z" transform="translate(4.232 -205.473)" fill="#4dc452"/>
      <path id="Path_17885" data-name="Path 17885" d="M142,227.29h25.122v6.468H151.394v4.822h14.6v6.2h-14.6v5.969h16.177v6.883H142Z" transform="translate(17.762 -205.277)" fill="#4dc452"/>
      <path id="Path_17886" data-name="Path 17886" d="M160.53,257.64V227.3h15.629a22.647,22.647,0,0,1,6.651.732,7.083,7.083,0,0,1,3.708,2.777,8.313,8.313,0,0,1,1.413,4.9,8.429,8.429,0,0,1-1.081,4.356,8.314,8.314,0,0,1-2.959,2.976,11.273,11.273,0,0,1-3.325,1.2,6.467,6.467,0,0,1,3.94,2.71,11.637,11.637,0,0,1,1.314,1.9l4.539,8.8H179.767l-4.988-9.277a7.151,7.151,0,0,0-1.663-2.344,3.973,3.973,0,0,0-2.294-.7h-.831v12.32Zm9.411-18.056H173.9a13.3,13.3,0,0,0,2.477-.416,2.427,2.427,0,0,0,1.53-.948,3.093,3.093,0,0,0-.349-4.024,5.67,5.67,0,0,0-3.492-.781h-4.123Z" transform="translate(30.041 -205.283)" fill="#4dc452"/>
      <path id="Path_17887" data-name="Path 17887" d="M177.35,227.29h10.408l6.118,10.225L200,227.29h10.358l-11.788,17.624v12.719h-9.394V244.914Z" transform="translate(41.187 -205.277)" fill="#4dc452"/>
      <path id="Path_17888" data-name="Path 17888" d="M76.059,245.486v-6.3H90.541V252.12a29.31,29.31,0,0,1-7.365,3.857,24.937,24.937,0,0,1-7.582,1.031,18.489,18.489,0,0,1-8.812-1.846,12.653,12.653,0,0,1-5.271-5.487,18.073,18.073,0,0,1-1.879-8.313,17.325,17.325,0,0,1,2.062-8.646,13.2,13.2,0,0,1,6-5.57,19.453,19.453,0,0,1,8.313-1.48,23.461,23.461,0,0,1,7.515.914,9.809,9.809,0,0,1,4.14,2.826,12.519,12.519,0,0,1,2.511,4.8l-9.045,1.663a4.788,4.788,0,0,0-1.9-2.627,5.853,5.853,0,0,0-3.325-.914,6.118,6.118,0,0,0-4.988,2.145,10.275,10.275,0,0,0-1.829,6.784,10.674,10.674,0,0,0,1.846,7.033,6.5,6.5,0,0,0,5.171,2.112,9.877,9.877,0,0,0,2.993-.449,17.224,17.224,0,0,0,3.325-1.563v-2.86Z" transform="translate(-36.821 -206.365)" fill="#fff"/>
      <path id="Path_17889" data-name="Path 17889" d="M81.64,256.306v-30.36H97.2a22.6,22.6,0,0,1,6.651.748,7.216,7.216,0,0,1,3.708,2.76,8.579,8.579,0,0,1-2.627,12.254,11.455,11.455,0,0,1-3.325,1.2,9.1,9.1,0,0,1,2.427,1.114,9.676,9.676,0,0,1,1.513,1.663,12.915,12.915,0,0,1,1.313,1.9l4.539,8.8H100.893l-4.988-9.277a7.149,7.149,0,0,0-1.663-2.344,3.974,3.974,0,0,0-2.294-.7h-.831v12.32Zm9.427-18.056h3.957a13.7,13.7,0,0,0,2.477-.416,2.544,2.544,0,0,0,1.53-.948,2.876,2.876,0,0,0,.582-1.762,2.826,2.826,0,0,0-.931-2.261,5.67,5.67,0,0,0-3.492-.781H91.067Z" transform="translate(-22.234 -206.177)" fill="#fff"/>
      <path id="Path_17890" data-name="Path 17890" d="M100.288,241.368a14.365,14.365,0,0,1,15.662-15.712q7.582,0,11.638,4.073a15.28,15.28,0,0,1,4.107,11.389,18.605,18.605,0,0,1-1.8,8.729,12.719,12.719,0,0,1-5.171,5.3,17.091,17.091,0,0,1-8.43,1.9,19.237,19.237,0,0,1-8.5-1.663,12.752,12.752,0,0,1-5.47-5.171A17.341,17.341,0,0,1,100.288,241.368Zm9.377,0a10.242,10.242,0,0,0,1.663,6.651,5.836,5.836,0,0,0,4.655,2.012,5.752,5.752,0,0,0,4.672-1.978c1.114-1.313,1.663-3.658,1.663-7.05a9.411,9.411,0,0,0-1.663-6.268,5.9,5.9,0,0,0-4.689-1.979,5.719,5.719,0,0,0-4.556,2.012,10.225,10.225,0,0,0-1.746,6.651Z" transform="translate(-9.924 -206.403)" fill="#fff"/>
      <path id="Path_17891" data-name="Path 17891" d="M142.828,244.1l8.213,2.477a14.963,14.963,0,0,1-2.61,5.769,11.389,11.389,0,0,1-4.423,3.508,16.627,16.627,0,0,1-6.651,1.18,19.419,19.419,0,0,1-8.08-1.446,12.686,12.686,0,0,1-5.4-4.988,17.026,17.026,0,0,1-2.278-9.261q0-7.532,4.007-11.638a15.147,15.147,0,0,1,11.323-4.057,15.346,15.346,0,0,1,9.011,2.328,13.567,13.567,0,0,1,4.888,7.116l-8.313,1.846a7.365,7.365,0,0,0-.914-2.028,5.42,5.42,0,0,0-1.929-1.663,5.619,5.619,0,0,0-2.544-.582,5.5,5.5,0,0,0-4.872,2.577,10.941,10.941,0,0,0-1.28,5.969c0,3.325.515,5.67,1.53,6.917a6.085,6.085,0,0,0,8.313.366A9.46,9.46,0,0,0,142.828,244.1Z" transform="translate(4.232 -206.389)" fill="#fff"/>
      <path id="Path_17892" data-name="Path 17892" d="M142,225.94h25.122v6.484H151.394v4.822h14.6v6.185h-14.6v5.985h16.177V256.3H142Z" transform="translate(17.762 -206.171)" fill="#fff"/>
      <path id="Path_17893" data-name="Path 17893" d="M160.53,256.306v-30.36h15.629a22.543,22.543,0,0,1,6.65.748,7.149,7.149,0,0,1,3.708,2.76,8.313,8.313,0,0,1,1.413,4.988,8.463,8.463,0,0,1-1.081,4.356,8.313,8.313,0,0,1-2.959,2.976,11.274,11.274,0,0,1-3.325,1.2,9.51,9.51,0,0,1,2.444,1.114,10.575,10.575,0,0,1,1.5,1.663,11.64,11.64,0,0,1,1.313,1.9l4.539,8.8H179.767l-4.988-9.277a7.15,7.15,0,0,0-1.663-2.344,3.974,3.974,0,0,0-2.294-.7h-.831v12.32Zm9.411-18.056H173.9a13.3,13.3,0,0,0,2.477-.416,2.494,2.494,0,0,0,1.53-.948,3.092,3.092,0,0,0-.349-4.024,5.669,5.669,0,0,0-3.492-.781h-4.123Z" transform="translate(30.041 -206.177)" fill="#fff"/>
      <path id="Path_17894" data-name="Path 17894" d="M177.35,225.94h10.408l6.118,10.242L200,225.94h10.358l-11.788,17.641V256.3h-9.394V243.581Z" transform="translate(41.187 -206.171)" fill="#fff"/>
      <rect id="Rectangle_3569" data-name="Rectangle 3569" width="86.274" height="153.91" transform="translate(93.024 125.978)" fill="#fff"/>
      <rect id="Rectangle_3570" data-name="Rectangle 3570" width="76.265" height="19.353" transform="translate(98.029 86.474)" fill="#4dc452" opacity="0.4"/>
      <rect id="Rectangle_3571" data-name="Rectangle 3571" width="61.002" height="118.296" transform="translate(19.486 104.596)" fill="#fff"/>
      <rect id="Rectangle_3572" data-name="Rectangle 3572" width="50.128" height="107.439" transform="translate(24.923 110.033)" fill="#4dc452" opacity="0.3"/>
      <rect id="Rectangle_3573" data-name="Rectangle 3573" width="74.203" height="66.189" transform="translate(173.263 202.941) rotate(180)" fill="#4dc452" opacity="0.3"/>
      <path id="Path_17901" data-name="Path 17901" d="M140.954,331.19h16.626a2.378,2.378,0,0,1,2.394,2.394h0a2.394,2.394,0,0,1-2.394,2.394H140.954a2.394,2.394,0,0,1-2.394-2.394h0a2.378,2.378,0,0,1,2.394-2.394Z" transform="translate(15.483 -136.429)" fill="#fff"/>
      <path id="Path_17902" data-name="Path 17902" d="M148.39,295.36,115.7,430.865H109.85l32.687-135.5Z" transform="translate(-3.541 -160.171)" fill="#fff" opacity="0.4"/>
      <path id="Path_17903" data-name="Path 17903" d="M160.98,295.36l-32.687,135.5H116.82l32.687-135.5Z" transform="translate(1.077 -160.171)" fill="#fff" opacity="0.4"/>
      <path id="Path_17904" data-name="Path 17904" d="M87.762,280.23,67.012,387.653H59.73L80.48,280.23Z" transform="translate(-36.752 -170.197)" fill="#fff" opacity="0.4"/>
      <path id="Path_17905" data-name="Path 17905" d="M96.138,280.23,75.388,387.653H66.51L87.276,280.23Z" transform="translate(-32.26 -170.197)" fill="#fff" opacity="0.4"/>
      <rect id="Rectangle_3574" data-name="Rectangle 3574" width="61.002" height="118.296" transform="translate(252.82 222.893) rotate(180)" fill="#fff"/>
      <rect id="Rectangle_3575" data-name="Rectangle 3575" width="107.439" height="50.128" transform="translate(197.271 217.456) rotate(-90)" fill="#4dc452" opacity="0.3"/>
      <path id="Path_17906" data-name="Path 17906" d="M198.959,280.23,178.192,387.653H170.91L191.676,280.23Z" transform="translate(36.919 -170.197)" fill="#fff" opacity="0.4"/>
      <path id="Path_17907" data-name="Path 17907" d="M207.328,280.23l-20.75,107.423H177.7L198.45,280.23Z" transform="translate(41.418 -170.197)" fill="#fff" opacity="0.4"/>
      <path id="Path_17908" data-name="Path 17908" d="M193.714,341.7,99.36,325.357V309.13l94.354,16.327Z" transform="translate(-10.492 -151.047)" fill="#4dc452"/>
    </g>
    <g id="freepik--store-2--inject-103" transform="translate(330.947 353.077)">
      <rect id="Rectangle_3576" data-name="Rectangle 3576" width="267.867" height="220.931" transform="translate(24.79 25.339)" fill="#4dc452"/>
      <rect id="Rectangle_3577" data-name="Rectangle 3577" width="267.867" height="220.931" transform="translate(24.79 25.339)" opacity="0.2"/>
      <path id="Path_17909" data-name="Path 17909" d="M216.454,360.567H481.112a3.824,3.824,0,0,1,3.824,3.824v32.488H212.63v-32.5a3.824,3.824,0,0,1,3.824-3.824Z" transform="translate(-190.051 -150.609)" fill="#263238"/>
      <rect id="Rectangle_3578" data-name="Rectangle 3578" width="33.535" height="8.047" transform="translate(45.589 80.156)" fill="#4dc452"/>
      <rect id="Rectangle_3579" data-name="Rectangle 3579" width="33.535" height="8.047" transform="translate(250.276 80.156)" fill="#4dc452"/>
      <rect id="Rectangle_3580" data-name="Rectangle 3580" width="33.535" height="8.047" transform="translate(62.365 88.203)" fill="#4dc452"/>
      <rect id="Rectangle_3581" data-name="Rectangle 3581" width="33.535" height="8.047" transform="translate(225.952 194.478) rotate(180)" fill="#4dc452"/>
      <rect id="Rectangle_3582" data-name="Rectangle 3582" width="33.535" height="8.047" transform="translate(209.193 202.509) rotate(180)" fill="#4dc452"/>
      <rect id="Rectangle_3583" data-name="Rectangle 3583" width="86.274" height="153.91" transform="translate(52.556 92.343)" fill="#fff"/>
      <rect id="Rectangle_3584" data-name="Rectangle 3584" width="121.272" height="96.898" transform="translate(152.098 92.343)" fill="#fff"/>
      <rect id="Rectangle_3585" data-name="Rectangle 3585" width="86.041" height="110.415" transform="translate(157.518 183.821) rotate(-90)" fill="#4dc452" opacity="0.3"/>
      <rect id="Rectangle_3586" data-name="Rectangle 3586" width="74.203" height="132.395" transform="translate(58.591 103.116)" fill="#4dc452" opacity="0.3"/>
      <rect id="Rectangle_3587" data-name="Rectangle 3587" width="78.626" height="11.472" transform="translate(56.363 163.57)" fill="#fff"/>
      <path id="Path_17910" data-name="Path 17910" d="M277.19,295.36,244.5,430.865H238.65l32.687-135.5Z" transform="translate(-172.81 -193.806)" fill="#fff" opacity="0.4"/>
      <path id="Path_17911" data-name="Path 17911" d="M289.78,295.36l-32.687,135.5H245.62l32.687-135.5Z" transform="translate(-168.191 -193.806)" fill="#fff" opacity="0.4"/>
      <path id="Path_17912" data-name="Path 17912" d="M339.432,293.1l-20.75,86.025H311.4L332.15,293.1Z" transform="translate(-124.603 -195.304)" fill="#fff" opacity="0.4"/>
      <path id="Path_17913" data-name="Path 17913" d="M366.974,293.1l-20.75,86.025H323.33L344.08,293.1Z" transform="translate(-116.698 -195.304)" fill="#fff" opacity="0.4"/>
      <path id="Path_17914" data-name="Path 17914" d="M234.424,270.276H199.06l41.6-36h26.12Z" transform="translate(-199.043 -234.28)" fill="#4dc452"/>
      <path id="Path_17915" data-name="Path 17915" d="M255.694,270.276H220.33l32.355-36H278.8Z" transform="translate(-184.949 -234.28)" fill="#fff"/>
      <path id="Path_17916" data-name="Path 17916" d="M276.964,270.276H241.6l23.111-36h26.12Z" transform="translate(-170.855 -234.28)" fill="#4dc452"/>
      <path id="Path_17917" data-name="Path 17917" d="M298.234,270.276H262.87l13.866-36h26.12Z" transform="translate(-156.761 -234.28)" fill="#fff"/>
      <path id="Path_17918" data-name="Path 17918" d="M319.5,270.276H284.14l4.622-36h26.12Z" transform="translate(-142.667 -234.28)" fill="#4dc452"/>
      <path id="Path_17919" data-name="Path 17919" d="M342.633,270.276H307.252l-4.622-36h26.12Z" transform="translate(-130.414 -234.28)" fill="#fff"/>
      <path id="Path_17920" data-name="Path 17920" d="M367.587,270.276H332.223l-13.883-36h26.12Z" transform="translate(-120.005 -234.28)" fill="#4dc452"/>
      <path id="Path_17921" data-name="Path 17921" d="M417.5,270.276H382.131l-32.371-36H375.9Z" transform="translate(-99.185 -234.28)" fill="#4dc452"/>
      <path id="Path_17922" data-name="Path 17922" d="M392.541,270.276H357.177l-23.127-36h26.12Z" transform="translate(-109.595 -234.28)" fill="#fff"/>
      <path id="Path_17923" data-name="Path 17923" d="M216.74,288.9h0a17.69,17.69,0,0,1-17.69-17.674v-15.3h35.381v15.3A17.69,17.69,0,0,1,216.74,288.9Z" transform="translate(-199.05 -219.934)" fill="#4dc452"/>
      <path id="Path_17924" data-name="Path 17924" d="M238.044,288.9h0a17.674,17.674,0,0,1-17.674-17.674v-15.3h35.3v15.3A17.674,17.674,0,0,1,238.044,288.9Z" transform="translate(-184.923 -219.934)" fill="#fff"/>
      <path id="Path_17925" data-name="Path 17925" d="M259.274,288.9h0A17.674,17.674,0,0,1,241.6,271.226v-15.3h35.364v15.3A17.674,17.674,0,0,1,259.274,288.9Z" transform="translate(-170.855 -219.934)" fill="#4dc452"/>
      <path id="Path_17926" data-name="Path 17926" d="M262.877,255.93h35.364v15.3a17.69,17.69,0,0,1-17.69,17.69h0a17.691,17.691,0,0,1-17.69-17.69v-15.3Z" transform="translate(-156.767 -219.934)" fill="#fff"/>
      <path id="Path_17927" data-name="Path 17927" d="M301.83,288.9h0a17.674,17.674,0,0,1-17.69-17.674v-15.3H319.5v15.3A17.674,17.674,0,0,1,301.83,288.9Z" transform="translate(-142.667 -219.934)" fill="#4dc452"/>
      <path id="Path_17928" data-name="Path 17928" d="M305.443,255.937h35.364v15.3a17.69,17.69,0,0,1-17.757,17.674h0a17.69,17.69,0,0,1-17.69-17.69v-15.3Z" transform="translate(-128.605 -219.941)" fill="#fff"/>
      <path id="Path_17929" data-name="Path 17929" d="M344.364,288.9h0a17.674,17.674,0,0,1-17.674-17.674v-15.3h35.431v15.3A17.674,17.674,0,0,1,344.364,288.9Z" transform="translate(-114.472 -219.934)" fill="#4dc452"/>
      <path id="Path_17930" data-name="Path 17930" d="M386.9,288.9h0a17.674,17.674,0,0,1-17.674-17.674v-15.3h35.364v15.3A17.674,17.674,0,0,1,386.9,288.9Z" transform="translate(-86.283 -219.934)" fill="#4dc452"/>
      <path id="Path_17931" data-name="Path 17931" d="M348,255.93h35.364v15.3a17.69,17.69,0,0,1-17.69,17.69h0A17.691,17.691,0,0,1,348,271.226Z" transform="translate(-100.351 -219.934)" fill="#fff"/>
      <circle id="Ellipse_2266" data-name="Ellipse 2266" cx="5.021" cy="5.021" r="5.021" transform="translate(125.462 158.266)" fill="#4dc452"/>
      <rect id="Rectangle_3588" data-name="Rectangle 3588" width="59.078" height="21.802" rx="1.596" transform="translate(68.175 123.762) rotate(5.143)" fill="#4dc452"/>
      <path id="Path_17932" data-name="Path 17932" d="M248.29,316.279l1.979.8a3.94,3.94,0,0,1-.781,1.38,2.843,2.843,0,0,1-1.164.765,4.406,4.406,0,0,1-1.663.15,4.987,4.987,0,0,1-2.012-.465,3.143,3.143,0,0,1-1.23-1.38,4.323,4.323,0,0,1-.366-2.344A3.99,3.99,0,0,1,244.3,312.4a3.841,3.841,0,0,1,2.893-.748,3.89,3.89,0,0,1,2.178.765,3.326,3.326,0,0,1,1.047,1.879l-2.078.266a1.8,1.8,0,0,0-.183-.515,1.448,1.448,0,0,0-.449-.449,1.231,1.231,0,0,0-.615-.2,1.363,1.363,0,0,0-1.264.532,2.743,2.743,0,0,0-.449,1.447,2.81,2.81,0,0,0,.233,1.746,1.28,1.28,0,0,0,1.031.549,1.247,1.247,0,0,0,1.031-.283,2.412,2.412,0,0,0,.615-1.114Z" transform="translate(-169.914 -183.035)" fill="#fff"/>
      <path id="Path_17933" data-name="Path 17933" d="M248.585,311.92l2.328.216-.5,5.653,3.608.316-.15,1.845-5.952-.515Z" transform="translate(-166.667 -182.833)" fill="#fff"/>
      <path id="Path_17934" data-name="Path 17934" d="M252.065,315.944a4.09,4.09,0,0,1,7.016-2.278,3.84,3.84,0,0,1,.765,2.91,4.871,4.871,0,0,1-.632,2.112,3.325,3.325,0,0,1-1.4,1.2,4.107,4.107,0,0,1-2.128.283,4.806,4.806,0,0,1-2.078-.582,3.325,3.325,0,0,1-1.23-1.4A4.174,4.174,0,0,1,252.065,315.944Zm2.311.216a2.494,2.494,0,0,0,.283,1.663,1.364,1.364,0,0,0,1.1.6,1.413,1.413,0,0,0,1.2-.382,2.643,2.643,0,0,0,.565-1.663,2.328,2.328,0,0,0-.283-1.58,1.53,1.53,0,0,0-1.114-.6,1.5,1.5,0,0,0-1.18.4,2.66,2.66,0,0,0-.565,1.563Z" transform="translate(-163.946 -182.518)" fill="#fff"/>
      <path id="Path_17935" data-name="Path 17935" d="M257.171,317.719h2.211a1.862,1.862,0,0,0,.216.848,1.23,1.23,0,0,0,1,.549,1.164,1.164,0,0,0,.781-.166.715.715,0,0,0,.316-.515.665.665,0,0,0-.216-.549,2.793,2.793,0,0,0-1.147-.532,5.238,5.238,0,0,1-2.095-1.114,1.845,1.845,0,0,1-.532-1.5,1.945,1.945,0,0,1,.432-1.064,2.245,2.245,0,0,1,1.081-.732,4.989,4.989,0,0,1,1.879-.133,3.808,3.808,0,0,1,2.145.732,2.361,2.361,0,0,1,.748,1.779h-2.195a1.246,1.246,0,0,0-.3-.765,1.28,1.28,0,0,0-.748-.3,1,1,0,0,0-.632.117.549.549,0,0,0-.249.4.532.532,0,0,0,.15.349,1.978,1.978,0,0,0,.748.333,9.871,9.871,0,0,1,2.128.864,2.3,2.3,0,0,1,.881.914,2.178,2.178,0,0,1,.2,1.131,2.345,2.345,0,0,1-.515,1.3,2.478,2.478,0,0,1-1.2.831,4.523,4.523,0,0,1-1.829.15,3.708,3.708,0,0,1-2.594-.964A2.909,2.909,0,0,1,257.171,317.719Z" transform="translate(-160.539 -182.264)" fill="#fff"/>
      <path id="Path_17936" data-name="Path 17936" d="M262.5,313.15l6.218.549-.15,1.663-3.891-.333-.1,1.18,3.608.333-.133,1.53-3.608-.316-.133,1.48,4.007.349-.15,1.663-6.335-.565Z" transform="translate(-157.45 -182.018)" fill="#fff"/>
      <path id="Path_17937" data-name="Path 17937" d="M267.075,313.55l3.442.3a4.257,4.257,0,0,1,1.663.432,2.643,2.643,0,0,1,.981.881,3.325,3.325,0,0,1,.482,1.264,5.318,5.318,0,0,1,0,1.463,5.188,5.188,0,0,1-.432,1.845,3.143,3.143,0,0,1-.865,1.048,2.511,2.511,0,0,1-1.1.5,5.15,5.15,0,0,1-1.4.083l-3.442-.3Zm2.161,1.912-.366,4.107h.582a2.343,2.343,0,0,0,1.047-.083,1.131,1.131,0,0,0,.532-.515,3.673,3.673,0,0,0,.283-1.3,2.561,2.561,0,0,0-.249-1.663,1.663,1.663,0,0,0-1.247-.549Z" transform="translate(-154.415 -181.753)" fill="#fff"/>
      <path id="Path_17938" data-name="Path 17938" d="M412.4,361.038l-122.32-56.031a.7.7,0,0,1-.4-.615V298.44a.682.682,0,0,1,.964-.615l122.32,56.031a.665.665,0,0,1,.4.615v5.952a.682.682,0,0,1-.964.615Z" transform="translate(-138.996 -192.214)" fill="#4dc452"/>
      <path id="Path_17939" data-name="Path 17939" d="M412.449,303.016,290.112,350.5a.682.682,0,0,0-.432.632v5.986a.682.682,0,0,0,.931.632l122.32-47.485a.665.665,0,0,0,.432-.632v-5.986a.682.682,0,0,0-.914-.632Z" transform="translate(-138.996 -188.76)" fill="#4dc452"/>
    </g>
    <g id="freepik--Tree--inject-103" transform="translate(668.358 433.243)">
      <rect id="Rectangle_3589" data-name="Rectangle 3589" width="7.482" height="95.369" transform="translate(29.798 44.499)" fill="#263238"/>
      <path id="Path_17940" data-name="Path 17940" d="M461.726,351h-55.15a2.344,2.344,0,0,0-2.511,2.594l8.563,47.668a2.477,2.477,0,0,0,2.527,1.9h38.008a2.461,2.461,0,0,0,2.511-1.9l8.579-47.668A2.344,2.344,0,0,0,461.726,351Z" transform="translate(-400.62 -237.106)" fill="#4dc452"/>
      <path id="Path_17941" data-name="Path 17941" d="M461.726,351h-55.15a2.344,2.344,0,0,0-2.511,2.594l8.563,47.668a2.477,2.477,0,0,0,2.527,1.9h38.008a2.461,2.461,0,0,0,2.511-1.9l8.579-47.668A2.344,2.344,0,0,0,461.726,351Z" transform="translate(-400.62 -237.106)" fill="#fff" opacity="0.5"/>
      <path id="Path_17942" data-name="Path 17942" d="M471.656,316.487h0a2.96,2.96,0,0,0-1.347-2.494,2.827,2.827,0,0,0-.831-.565h0a1.034,1.034,0,0,1-.964-1.829h0a2.992,2.992,0,0,0-.831-1.663,3.043,3.043,0,0,0,0-2.876,2.943,2.943,0,0,0-1.264-1.247,24.854,24.854,0,0,0-3.658-5.719h0a2.976,2.976,0,0,0,.665-1.812,3.026,3.026,0,0,0-1.879-2.843,2.96,2.96,0,0,0,.283-2.261,3.009,3.009,0,0,0-3.691-2.128h0a2.842,2.842,0,0,0-.981.482l-.183-.116a3.109,3.109,0,0,0-1.663-.233,3.075,3.075,0,0,0-1.214-.815h-.133a3.078,3.078,0,0,0,.632-.748,3.009,3.009,0,0,0-1.048-4.123h0a2.993,2.993,0,0,0-3.807.615l-.283-.083a2.893,2.893,0,0,0-1.513.116,7.906,7.906,0,0,1-4.837-3.6,3.009,3.009,0,0,0-3.177,1.485h0a2.277,2.277,0,0,0-.249.632,2.943,2.943,0,0,0-.931-.316h0a3.009,3.009,0,0,0-1.912.332,2.893,2.893,0,0,0-1.446-1.247h0a3.009,3.009,0,0,0-3.924,1.663,2.59,2.59,0,0,0-.116.382,2.993,2.993,0,0,0-2.91-.8,1.663,1.663,0,0,1-2.96.332q-3.19.806-6.368,1.663a2.926,2.926,0,0,0-.682,1.829,2.828,2.828,0,0,0-.748,0,3.009,3.009,0,0,0-2.394,2.527,2.926,2.926,0,0,0-1.247.116,3.026,3.026,0,0,0-1.663,1.413,1.663,1.663,0,0,0-.5-.233,2.993,2.993,0,0,0-3.841,1.829h0a3.043,3.043,0,0,0,.682,3.092v.083a2.977,2.977,0,0,0-.183,1.463l-.216.15a3.126,3.126,0,0,0-.8,1.147H407.3a3.026,3.026,0,0,0-3.325,2.644,2.562,2.562,0,0,0,0,.715,3.009,3.009,0,0,0-.981,4.073,2.843,2.843,0,0,0,1.579,1.28,2.977,2.977,0,0,0-.15,1.314l-.316.2h0q-.867,3.316-1.663,6.651a3.323,3.323,0,0,0,.632,1.047,3.206,3.206,0,0,0-.765,1.2,3.009,3.009,0,0,0,1.014,3.325,1.86,1.86,0,0,0-.482.316h0a2.959,2.959,0,0,0,2.644,4.988,2.9,2.9,0,0,0,.166.316,3.009,3.009,0,0,0-.5,2.145,2.409,2.409,0,0,0,.2.7,2.977,2.977,0,0,0-.781,2.195,3.009,3.009,0,0,0,3.192,2.826h.349A2.993,2.993,0,0,0,410.887,338a4.81,4.81,0,0,0-.083.549h0a3.042,3.042,0,0,0,2.91,3.126h.349a3.175,3.175,0,0,0-.383.831,3.009,3.009,0,0,0,2.062,3.724h0a3.059,3.059,0,0,0,2.843-.665,5.786,5.786,0,0,1,4.506,2.294h0a2.959,2.959,0,0,0,2.959-.5,3.109,3.109,0,0,0,.632,1.363h0a3.009,3.009,0,0,0,4.24.4h0a3.043,3.043,0,0,0,2.577.2,2.927,2.927,0,0,0,.366.765h0a3.026,3.026,0,0,0,4.206.748,3.127,3.127,0,0,0,.865-.948,2.976,2.976,0,0,0,4.19-1.446,11.173,11.173,0,0,1,7.033-1.663,2.959,2.959,0,0,0,.715-1.663,3.01,3.01,0,0,0,2.477-1.663,2.845,2.845,0,0,0,.249-1.014,2.91,2.91,0,0,0,1.663-1.1,3.026,3.026,0,0,0,5.653-1.663,3.076,3.076,0,0,0-.931-1.862,2.909,2.909,0,0,0,1.181-.881h0a2.909,2.909,0,0,0,.582-1.313l.2.116a2.993,2.993,0,0,0,4.073-1.214h0a6.1,6.1,0,0,1,.865-5.453,3.043,3.043,0,0,0-1-2.145c0-.1,0-.2,0-.316a3.093,3.093,0,0,0,.6-.632,2.976,2.976,0,0,0,.366-2.627,2.542,2.542,0,0,0,.6-.116h0a38.024,38.024,0,0,1,4.223-6.468ZM407.345,330.037Z" transform="translate(-401.988 -282.496)" fill="#4dc452"/>
    </g>
  </g>
</svg>
