<svg xmlns="http://www.w3.org/2000/svg" width="787.143" height="311.023" viewBox="0 0 787.143 311.023">
  <g id="Group_37724" data-name="Group 37724" transform="translate(-30.484 -126.474)">
    <g id="Group_37681" data-name="Group 37681" transform="translate(644.164 134.395)">
      <g id="Group_37673" data-name="Group 37673" transform="translate(19.644 132.613)">
        <g id="Group_37671" data-name="Group 37671" transform="translate(0 144.139)">
          <path id="Path_10727" data-name="Path 10727" d="M603.854,377.514l-.426,13.607-4.351,2.279s4.849,8.33,16.016,1.721c0,0,.188-5.056,1.686-16.858Z" transform="translate(-587.629 -377.514)" fill="#ffaf94" fill-rule="evenodd"/>
          <path id="Path_10728" data-name="Path 10728" d="M600.58,391.53l-11.6,5.4s15.56,2.329,27.464-.787l.375-5.245s-6.811.866-11.208.866" transform="translate(-588.982 -375.721)" fill="#1f2040" fill-rule="evenodd"/>
        </g>
        <g id="Group_37672" data-name="Group 37672" transform="translate(131.436 121.997)">
          <path id="Path_10729" data-name="Path 10729" d="M704.889,366.6l9.319,9.922-1.465,4.689s9.319,2.462,12.543-10.108c0,0-3.444-3.708-10.729-13.112Z" transform="translate(-704.889 -357.988)" fill="#ffaf94" fill-rule="evenodd"/>
          <path id="Path_10730" data-name="Path 10730" d="M712.379,379.733l-4.386,12.017s12.651-9.356,18.864-19.977l-3.444-3.973s-4.2,5.428-7.312,8.538" transform="translate(-704.473 -356.674)" fill="#1f2040" fill-rule="evenodd"/>
        </g>
        <path id="Path_10731" data-name="Path 10731" d="M625.2,250.407c.233-.494-24.866,63.218-22.811,145.283,0,0,14.111,4.445,15.153,1.344,10.187-30.306,10.187-37.471,32.524-105.746l8.851,49.732,62.8,44.674s9.206-7.186,11.8-9.273c-28.238-45.517-42.989-56.475-42.989-56.475l-6.743-67.432S624.97,250.9,625.2,250.407Z" transform="translate(-587.201 -250.404)" fill="#4dc452" fill-rule="evenodd"/>
      </g>
      <g id="Group_37678" data-name="Group 37678">
        <g id="Group_37674" data-name="Group 37674" transform="translate(0 98.525)">
          <path id="Path_10732" data-name="Path 10732" d="M613.978,220.344l-3.145,10.59L582.84,248.2c-3.405,2.1-4.387,2.912-7.763,6.791a25.519,25.519,0,0,0-2.17,2.83,6.055,6.055,0,0,0-.5,1.837c-.124.811-.136,1.644-.272,2.448-.143.847-.369,1.665-.459,2.523a.992.992,0,0,0,.006.347.347.347,0,0,0,.219.253.468.468,0,0,0,.261-.024c2.09-.659,1.15-3.29,2.763-4.345a3.9,3.9,0,0,0-.124,1.07,5.728,5.728,0,0,0,0,1.278c.057.411.587,1.872.988.984a9.543,9.543,0,0,0,.413-2.372,5.847,5.847,0,0,1,.778-2.47c-.348.517-.583,3.8.421,3.806.679,0,.54-1.955.574-2.407a4.94,4.94,0,0,1,.776-2.648c-.047.79,1.135,1.467,1.87,2.068a1.885,1.885,0,0,0,2.042-.01c1.412-1.048-3.083-3.858,1.6-3.67,17.14.685,33.821-3.643,49.194-10.866q-1.42-10.395-1.894-20.891C627.387,223.856,618.128,221.781,613.978,220.344Z" transform="translate(-571.659 -220.344)" fill="#ffa481" fill-rule="evenodd"/>
          <path id="Path_10733" data-name="Path 10733" d="M615.893,235.918a.582.582,0,0,1-.507-.354.525.525,0,0,1-.034-.135,49.816,49.816,0,0,0-9.624-5.1.507.507,0,0,1,.373-.942,50.77,50.77,0,0,1,10.056,5.36.684.684,0,0,1,.252.751.594.594,0,0,1-.495.415Zm-.311-.331h0Z" transform="translate(-567.137 -219.137)" fill="#000563"/>
          <path id="Path_10734" data-name="Path 10734" d="M582.9,253.9a2.994,2.994,0,0,1-.425-2.025.507.507,0,1,0-.968-.3,3.8,3.8,0,0,0,.466,2.739,7.358,7.358,0,0,1,.44,1.161,2.376,2.376,0,0,1-3.388-1.637.506.506,0,0,0-.6-.392.5.5,0,0,0-.256.152.488.488,0,0,0-.2.028c-1.305.467-3.094,1.108-4.064,2.571a7.857,7.857,0,0,0-.867,2.071,4.763,4.763,0,0,1-1.115,2.218.506.506,0,0,0,.34.883.5.5,0,0,0,.339-.13,5.568,5.568,0,0,0,1.4-2.671,7.047,7.047,0,0,1,.745-1.811,6.569,6.569,0,0,1,3.473-2.143,3.421,3.421,0,0,0,1.855,1.882,3.384,3.384,0,0,0,1.259.24,3.425,3.425,0,0,0,1.919-.583.507.507,0,0,0,.219-.48A6.272,6.272,0,0,0,582.9,253.9Z" transform="translate(-571.645 -216.209)" fill="#000563"/>
          <path id="Path_10735" data-name="Path 10735" d="M575.157,260.361h0a1.1,1.1,0,0,1-.809-.367,1.93,1.93,0,0,1-.388-1.017l-.38-2.508a.508.508,0,0,1,1-.153l.38,2.509a1.457,1.457,0,0,0,.119.46h0l.778-4.161a.507.507,0,0,1,1,.12,14.117,14.117,0,0,0,.039,2.031l.413-2.792a.507.507,0,1,1,1,.149l-.576,3.892a.92.92,0,0,1-.608.849.737.737,0,0,1-.612-.084.988.988,0,0,1-.34-.381l-.1.561a1.191,1.191,0,0,1-.253.6A.877.877,0,0,1,575.157,260.361Z" transform="translate(-571.402 -215.828)" fill="#000563"/>
        </g>
        <path id="Path_10736" data-name="Path 10736" d="M637.721,141.236c-.011.748,5.964,18.086,19.295,12.838,0,0,1.8-.074,1.575,3.36,0,0-.974,4.785-4.5,4.1l.852,19.9,5.96.957,13.9,4.137a33.415,33.415,0,0,0,7.357-11.977s8.19-15.554-9.431-18.146c0,0-10.658-.46-11.66-1.873,0,0,3.562-20.186-8.608-20.787,0,0-12.181-1.978-15.1,4.521,0,0-27.3,13.766-5.012,27.733,0,0-9,9.4-3.744,17.523l8.456-1.876,4.9-.638-.32-13.836S626.3,168.869,637.721,141.236Z" transform="translate(-564.701 -133.459)" fill="#1f2040" fill-rule="evenodd"/>
        <g id="Group_37675" data-name="Group 37675" transform="translate(35.766 47.162)">
          <path id="Path_10737" data-name="Path 10737" d="M694.943,226.648c-.846-12.545-2.69-32.78-6.086-39.76,0,0-7.024-9.554-25-11.206,0,0-2.788,3.514-6.284,7.381a79.055,79.055,0,0,1-7.253,7.205c-2.285,1.913-3.916,2.365-5.266,2.328,0,0-4.709-.2-5.02-9.057l-.286-8.491-1.461.318s-14.72,2.623-20.515,10.117A324.083,324.083,0,0,0,603.2,224.492s11.465,6.3,20.68,6.38l-.256,16.09-.359,14.124c9.706,2.268,51.827,3.071,65.875-.3,0,0-1.064-15.249-2.134-31.811A43.814,43.814,0,0,0,694.943,226.648Z" transform="translate(-603.199 -175.049)" fill="#5b5d9d" fill-rule="evenodd"/>
          <path id="Path_10738" data-name="Path 10738" d="M621.913,231.186a.507.507,0,0,1-.507-.507V224.2c-1-.717-4.8-3.76-5.057-8.668-.213-4.069,3.028-6.431,4.963-7.841a6.224,6.224,0,0,0,1.237-1.03,75.6,75.6,0,0,0,.261-7.733.507.507,0,0,1,1.015,0,78.563,78.563,0,0,1-.3,7.99c-.126.5-.688.913-1.62,1.592-1.885,1.373-4.733,3.448-4.547,6.968.264,5.021,4.781,8,4.826,8.03a.509.509,0,0,1,.232.426v6.743A.508.508,0,0,1,621.913,231.186Z" transform="translate(-601.439 -171.917)" fill="#000563"/>
        </g>
        <g id="Group_37676" data-name="Group 37676" transform="translate(45.904 99.18)">
          <path id="Path_10739" data-name="Path 10739" d="M692.329,249.3c.862-3.235.731-16.237.625-22.106-.107-2.094-.217-4.186-.345-6.273A75.647,75.647,0,0,1,668.684,225c-.021,0,.043,5.471.043,5.471s-21.575,5.653-34.694,8.148l-14.813,2.267a4.68,4.68,0,0,0-5.043-1.831l1.625,2.7-2.854,2.4,1.017,5.97s.349,1.84,1.75,2.1.945-.785.945-.785l-.5-1.309,1.313-.65.622.057s2.26.514,3.84-2.185c11.226,2.243,22.791,4.47,34.1,5.544C662.714,253.03,684.763,255.352,692.329,249.3Z" transform="translate(-612.031 -220.921)" fill="#ffa481" fill-rule="evenodd"/>
          <path id="Path_10740" data-name="Path 10740" d="M616.218,249.745a3.392,3.392,0,0,1-2.716-1.368.507.507,0,1,1,.821-.6,2.4,2.4,0,0,0,1.752.943l-.432-1.772a.506.506,0,0,1,.575-.62,5.214,5.214,0,0,0,5.623-3.527.507.507,0,0,1,.973.287A6.227,6.227,0,0,1,616.8,247.4l.407,1.668a.507.507,0,0,1-.4.618A3.109,3.109,0,0,1,616.218,249.745Z" transform="translate(-611.97 -218.038)" fill="#000563"/>
          <path id="Path_10741" data-name="Path 10741" d="M613.687,247.017a.5.5,0,0,1-.151-.024.509.509,0,0,1-.352-.556,4.46,4.46,0,0,1,1.385-2.64.507.507,0,1,1,.688.745,3.477,3.477,0,0,0-.9,1.363.51.51,0,0,1-.015.426l-.2.4A.507.507,0,0,1,613.687,247.017Z" transform="translate(-612 -217.874)" fill="#000563"/>
          <path id="Path_10742" data-name="Path 10742" d="M613.3,244.782a.508.508,0,0,1-.479-.672,5.121,5.121,0,0,1,1.5-2.209.507.507,0,0,1,.661.769,4.118,4.118,0,0,0-1.2,1.771A.507.507,0,0,1,613.3,244.782Z" transform="translate(-612.051 -218.127)" fill="#000563"/>
          <path id="Path_10743" data-name="Path 10743" d="M612.647,243.24a.518.518,0,0,1-.178-.032.508.508,0,0,1-.3-.653,6.665,6.665,0,0,1,3.97-3.854.509.509,0,0,1,.188-.085l.476-.108.038-.008h0a.508.508,0,0,1,.22.991h0l-.034.008a5.6,5.6,0,0,0-3.909,3.413A.506.506,0,0,1,612.647,243.24Z" transform="translate(-612.139 -218.567)" fill="#000563"/>
          <path id="Path_10744" data-name="Path 10744" d="M615.487,239.97a.507.507,0,0,1-.443-.26l-1.186-2.119a1.252,1.252,0,0,1-.121-1.236,1.17,1.17,0,0,1,1.131-.5,6.009,6.009,0,0,1,3.983,1.687.508.508,0,0,1-.709.727,4.985,4.985,0,0,0-3.3-1.4.784.784,0,0,0-.2.011,1.352,1.352,0,0,0,.1.214l1.187,2.119a.508.508,0,0,1-.2.691A.5.5,0,0,1,615.487,239.97Z" transform="translate(-611.942 -218.92)" fill="#000563"/>
          <path id="Path_10745" data-name="Path 10745" d="M674.2,238.532a.572.572,0,0,1-.346-.118.594.594,0,0,1-.211-.661.445.445,0,0,1,.036-.078,6.663,6.663,0,0,0-.763-1.43,10.977,10.977,0,0,0-2.708-2.525,26.356,26.356,0,0,0-8.167-3.857.508.508,0,0,1,.27-.979,27.374,27.374,0,0,1,8.48,4.005,11.881,11.881,0,0,1,2.955,2.773,7.656,7.656,0,0,1,.988,1.946.674.674,0,0,1-.215.823A.553.553,0,0,1,674.2,238.532Zm-.425-.593h0Z" transform="translate(-605.504 -219.856)" fill="#000563"/>
        </g>
        <path id="Path_10746" data-name="Path 10746" d="M662.2,229.21a10.311,10.311,0,0,1-1.548-.094.508.508,0,0,1-.427-.483c-.836-23.12,1.395-33.187,1.417-33.286a.507.507,0,0,1,.989.226c-.023.1-2.194,9.939-1.407,32.589,3.326.279,12.488-1.168,15.428-1.732,4.656-.892,7.221-1.383,10.546-3.046a.507.507,0,1,1,.454.907c-3.451,1.725-6.065,2.226-10.809,3.135A106.322,106.322,0,0,1,662.2,229.21Z" transform="translate(-559.818 -125.22)" fill="#000563"/>
        <g id="Group_37677" data-name="Group 37677" transform="translate(68.495 7.62)">
          <path id="Path_10747" data-name="Path 10747" d="M654.646,179.759s-.625-13.777-1.031-18.745c.11-.006.221,0,.33-.006a3.582,3.582,0,0,0,2.66-1.525,7.827,7.827,0,0,0,1.219-2.906,3.187,3.187,0,0,0-.356-2.952,2.294,2.294,0,0,0-2.017-.56c-1.947.31-3.4.946-5.4.643-3.659-.555-6.81-3.076-9.166-5.789l-4.4-7.741s-11.19,24.125,2.054,26.624a15.352,15.352,0,0,0,1.6.209l.38,12.655-4.757.527s-1.623,16.388,5.4,17.182c0,0,4.62,1.894,18.745-16.956Z" transform="translate(-632.061 -140.179)" fill="#ffa481" fill-rule="evenodd"/>
          <path id="Path_10748" data-name="Path 10748" d="M639.262,164.73a.507.507,0,0,1-.007-1.014c.047,0,4.691-.1,7.778-2.367a.507.507,0,0,1,.6.818c-3.352,2.466-8.162,2.561-8.365,2.563Z" transform="translate(-631.165 -137.356)" fill="#000563"/>
          <path id="Path_10749" data-name="Path 10749" d="M650.053,157.7a.507.507,0,0,1-.02-1.014,2.516,2.516,0,0,0,1.677-.759,9.311,9.311,0,0,1-1.526-1.989.506.506,0,0,1,.246-.721,5.684,5.684,0,0,1,2.986-.369.507.507,0,0,1-.081,1.009l-.756-.01a.49.49,0,0,1-.192-.04,4.619,4.619,0,0,0-1,.153,8.283,8.283,0,0,0,1.345,1.54.509.509,0,0,1,.084.661,3.536,3.536,0,0,1-2.746,1.537Z" transform="translate(-629.719 -138.489)" fill="#000563"/>
        </g>
      </g>
      <g id="Group_37680" data-name="Group 37680" transform="translate(63.545 106.864)">
        <path id="Path_10750" data-name="Path 10750" d="M671.317,264.885l-1.278.141c.67-2.964,2.44-5.96,3.782-8.636a70.1,70.1,0,0,1,11.477-17.18c1.361-1.43,5.369-5.635,7.922-5.2,1.226.209,1.493,1.634,1.47,2.668a11.557,11.557,0,0,1-3.336,7.37c-.383.416-1.707,1.284-1.863,1.833-.026.09.161-.09.24-.136.2-.12.611-.361.789-.46.682-.376,1.379-.719,2.092-1.033a17.531,17.531,0,0,1,6.363-1.689c.756-.024,2.047-.049,2.525.711.677,1.072-1.254,2.47-1.9,2.944a20.811,20.811,0,0,1-4.941,2.553c-.854.33-2.47.552-3.169,1.17-.062.054.161.044.244.044.321,0,.642-.027.964-.029a23.475,23.475,0,0,1,2.477.122c1.635.16,6.664.723,7.3,2.648.265.809-.769,1.3-1.352,1.537a21.638,21.638,0,0,1-6.74,1.111q-1.083.066-2.17.088c-.174,0-.645.01-.851.011-.068,0-.264-.016-.2,0a15.754,15.754,0,0,1,5.8,2.782c.492.423,1.492,1.3,1.255,2.074-.2.638-1.186.739-1.723.814a27.218,27.218,0,0,1-5.14.067,48.438,48.438,0,0,0-8.782-.015,41.376,41.376,0,0,0-11.258,3.689" transform="translate(-622.023 -226.856)" fill="#4dc452" fill-rule="evenodd"/>
        <path id="Path_10751" data-name="Path 10751" d="M672.269,265.415l-2.893-.215c-.9-7.2-.18-15.873,3.144-22.38.548-1.072,2.6-5.03,3.962-5.551.1-.036.339.329.211,1.989a30.661,30.661,0,0,1-1.133,5.855c-.168.6-.347,1.2-.511,1.8-.065.236-.323.813-.185.73.206-.124.433-1.073.5-1.249a47.628,47.628,0,0,1,9.566-14.958c.917-.963,1.847-1.933,2.855-2.8.26-.225.981-.979,1.4-.937.217.02-1,2.16-1.1,2.344q-1.048,1.8-2.048,3.637c-2.26,4.154-4.154,8.478-6.121,12.773-.477,1.04-.953,2.08-1.463,3.1a8.9,8.9,0,0,0-.593,1.175c.2.2.3-.485.441-.73.444-.748.9-1.492,1.366-2.226q1.6-2.5,3.426-4.836a54.523,54.523,0,0,1,11.595-11.292c.821-.576,3.8-2.881,4.838-2.842.409.016-.291.827-.3.838-.517.659-1.107,1.263-1.667,1.886q-1.817,2.016-3.573,4.088-5.435,6.447-10.6,13.111c-.849,1.1-1.7,2.189-2.5,3.321-.082.117-.683.776-.629.953.065.209.359-.252.523-.4.319-.285.648-.589.963-.874,1.14-1.032,2.292-2.055,3.481-3.029a81.937,81.937,0,0,1,12.721-8.563c1.053-.574,2.115-1.139,3.189-1.674.381-.189.878-.786,1.178-.485.033.033-.193.24-.974.793-1.326.937-2.674,1.842-3.985,2.8-2.788,2.037-5.49,4.207-8.107,6.458a90.648,90.648,0,0,0-7.848,7.386c-1.5,1.644-2.791,3.469-4.259,5.144-1.052,1.2-2.218,2.292-3.273,3.489-.438.494-.9,1.25-1.6,1.366" transform="translate(-622.159 -227.698)" fill="#1f2040" fill-rule="evenodd"/>
        <path id="Path_10752" data-name="Path 10752" d="M657.207,257.486a8.742,8.742,0,0,1,1.624-7.033,8.393,8.393,0,0,1,10.45-2.128,7.974,7.974,0,0,1,3.448,4.682,5.267,5.267,0,0,1,.2,1.763c-.2,4.907-5.723,7.211-10,6.912-2.89-.2-4.8-1.1-5.654-3.944C657.252,257.654,657.229,257.57,657.207,257.486Z" transform="translate(-623.77 -225.065)" fill="#fff" fill-rule="evenodd"/>
        <path id="Path_10753" data-name="Path 10753" d="M646.516,254.917a7.459,7.459,0,0,1,1.114-3.758c1.718-2.722,4.184-5.14,7.557-5.388a8.6,8.6,0,0,1,8.994,9.685c-.609,5.727-6.9,8.254-11.968,6.815-2.131-.6-4.628-2.034-5.283-4.248A9.8,9.8,0,0,1,646.516,254.917Z" transform="translate(-625.175 -225.279)" fill="#fff" fill-rule="evenodd"/>
        <path id="Path_10754" data-name="Path 10754" d="M641.1,278.178c0-.842-6.463-28.378-6.463-28.378l4.214-3.09-1.966-5.62,3.652-.843,1.686,5.338,5.057-.561,8.99,31.469-14.048,5.058Z" transform="translate(-626.766 -226.016)" fill="#fff" fill-rule="evenodd"/>
        <path id="Path_10755" data-name="Path 10755" d="M651.493,231.163s4.81,18.517,4.423,32.745l5.739-.06s-1.381-25.181-5.132-33.642A9.08,9.08,0,0,0,651.493,231.163Z" transform="translate(-624.508 -227.369)" fill="#1f2040" fill-rule="evenodd"/>
        <path id="Path_10756" data-name="Path 10756" d="M691.725,254.506c-36.494-.152-64.029,1.534-64.029,1.534l1.215,5.672c.6-.07,1.338-.137,2.174-.2.946,6.173,5.289,32.251,5.289,32.251s16.75,4.276,45.863-.115l6.4-33.221c1.659,0,2.609,0,2.609,0Z" transform="translate(-627.696 -224.107)" fill="#ff6364" fill-rule="evenodd"/>
        <g id="Group_37679" data-name="Group 37679" transform="translate(9.058 40.667)">
          <path id="Path_10757" data-name="Path 10757" d="M635.684,264.441l3.66,24.318,4.491-.092-2.7-24.338Z" transform="translate(-635.684 -263.457)" fill="#1f2040"/>
          <path id="Path_10758" data-name="Path 10758" d="M644.37,264.262l1.326,24.365,3.842-.078-.119-24.39Z" transform="translate(-634.52 -263.48)" fill="#1f2040"/>
          <path id="Path_10759" data-name="Path 10759" d="M652.372,288.492l3.615-.074,1.3-24.419-5.275.108Z" transform="translate(-633.496 -263.501)" fill="#1f2040"/>
          <path id="Path_10760" data-name="Path 10760" d="M659.681,288.345l3.7-.075,2.267-24.439-5.135.1Z" transform="translate(-632.469 -263.524)" fill="#1f2040"/>
          <path id="Path_10761" data-name="Path 10761" d="M669.29,263.761l-3.645,24.467,3.116-.064,4.745-24.489Z" transform="translate(-631.67 -263.545)" fill="#1f2040"/>
          <path id="Path_10762" data-name="Path 10762" d="M675.043,263.644l-3.966,24.473,3.109-.063,4.95-24.494Z" transform="translate(-630.942 -263.56)" fill="#1f2040"/>
        </g>
        <path id="Path_10763" data-name="Path 10763" d="M630.631,261.2a.489.489,0,0,1-.008-.071.507.507,0,0,1,.489-.525l46.475-1.644a.507.507,0,0,1,.036,1.014l-46.475,1.644A.507.507,0,0,1,630.631,261.2Z" transform="translate(-627.304 -223.509)" fill="#1f2040"/>
      </g>
    </g>
    <g id="Group_37692" data-name="Group 37692" transform="translate(464.721 133.493)">
      <g id="Group_37683" data-name="Group 37683" transform="translate(0 169.421)">
        <g id="Group_37682" data-name="Group 37682">
          <path id="Path_10764" data-name="Path 10764" d="M444.96,288.575a.5.5,0,0,1-.228-.071.508.508,0,0,1-.172-.7c2.363-3.907,6.963-5.161,9.493-5.561a9.74,9.74,0,0,1,3.358-.049,8.344,8.344,0,0,1,5.766,5.272l.037.016a.587.587,0,0,1,.314.637.556.556,0,0,1-.5.464.676.676,0,0,1-.7-.493c-.8-2.041-2.568-4.4-5.121-4.9a8.846,8.846,0,0,0-3,.054c-2.356.373-6.632,1.53-8.783,5.085A.507.507,0,0,1,444.96,288.575Z" transform="translate(-409.254 -282.069)" fill="#000563"/>
          <path id="Path_10765" data-name="Path 10765" d="M434.1,286.632l43.073.783,7.441,6.111-45.8-2.7Z" transform="translate(-410.646 -281.457)" fill="#4dc452" fill-rule="evenodd"/>
          <path id="Path_10766" data-name="Path 10766" d="M429.429,356.125l17.561-65.159-5.444-.058-4.676-4.276-23.453,55.65Z" transform="translate(-413.417 -281.457)" fill="#4dc452" fill-rule="evenodd"/>
          <path id="Path_10767" data-name="Path 10767" d="M444.089,291.486h-.009l-5.221-.092a.506.506,0,0,1-.328-.129l-4.709-4.2a.507.507,0,1,1,.675-.756l4.569,4.07,5.033.088a.508.508,0,0,1-.009,1.015Z" transform="translate(-410.706 -281.517)" fill="#fff"/>
          <path id="Path_10768" data-name="Path 10768" d="M498.937,357.048l-9.476-65.68-41.133-.884h0l-3.419-.071-17.386,65.217,20.083,4.746,0-.252Z" transform="translate(-411.527 -280.951)" fill="#1f2040" fill-rule="evenodd"/>
          <path id="Path_10769" data-name="Path 10769" d="M448.143,293.824h-.035a.509.509,0,0,1-.472-.542,12.738,12.738,0,0,1,5.5-9.51,8.815,8.815,0,0,1,3.04-1.354,8.636,8.636,0,0,1,5.941,1.078,18.482,18.482,0,0,1,4.536,3.844,44.983,44.983,0,0,1,4.124,5.308.507.507,0,0,1-.846.56,43.776,43.776,0,0,0-4.03-5.188,17.625,17.625,0,0,0-4.276-3.639,7.626,7.626,0,0,0-5.237-.972,7.813,7.813,0,0,0-2.688,1.2,11.7,11.7,0,0,0-5.055,8.737A.508.508,0,0,1,448.143,293.824Z" transform="translate(-408.832 -282.042)" fill="#000563"/>
          <path id="Path_10770" data-name="Path 10770" d="M468.745,294.8a.505.505,0,0,1-.446-.265l-.3-.557a.5.5,0,0,1-.061-.232,17.52,17.52,0,0,0-10.625-9.017,4.947,4.947,0,0,0-1.2-.237h-.088c-1.6,0-2.914,1.5-3.463,2.922a15.3,15.3,0,0,0-.744,3.357c-.094.649-.193,1.32-.335,1.979a.508.508,0,1,1-.992-.214c.135-.625.23-1.278.323-1.912a16.36,16.36,0,0,1,.8-3.575c.708-1.829,2.39-3.666,4.533-3.568a5.767,5.767,0,0,1,1.454.277,18.534,18.534,0,0,1,11.611,10.337.507.507,0,0,1-.244.657A.517.517,0,0,1,468.745,294.8Z" transform="translate(-408.451 -281.881)" fill="#000563"/>
          <path id="Path_10771" data-name="Path 10771" d="M445.265,360.432h-.01a.508.508,0,0,1-.5-.516l1.3-67.517a.521.521,0,0,1,.517-.5.509.509,0,0,1,.5.517l-1.3,67.517A.508.508,0,0,1,445.265,360.432Z" transform="translate(-409.218 -280.751)" fill="#fff"/>
        </g>
      </g>
      <g id="Group_37686" data-name="Group 37686" transform="translate(54.246 133.096)">
        <g id="Group_37684" data-name="Group 37684" transform="translate(0 147.087)">
          <path id="Path_10772" data-name="Path 10772" d="M476.127,379.744l-.426,13.607-4.351,2.279s4.848,8.329,16.016,1.723c0,0,.187-5.058,1.686-16.859Z" transform="translate(-459.901 -379.744)" fill="#ffa481" fill-rule="evenodd"/>
          <path id="Path_10773" data-name="Path 10773" d="M472.853,393.76l-11.6,5.4s15.562,2.329,27.465-.787l.374-5.245s-6.81.866-11.207.866" transform="translate(-461.254 -377.951)" fill="#1f2040" fill-rule="evenodd"/>
        </g>
        <g id="Group_37685" data-name="Group 37685" transform="translate(77.293 138.626)">
          <path id="Path_10774" data-name="Path 10774" d="M535.221,376.674l4.955,12.679-3.1,3.807s7.733,5.753,15.4-4.714c0,0-1.817-4.724-5.078-16.164Z" transform="translate(-528.637 -372.282)" fill="#ffa481" fill-rule="evenodd"/>
          <path id="Path_10775" data-name="Path 10775" d="M537.958,391.4l-8.543,9.522s15.224-3.976,24.944-11.521l-1.718-4.969s-5.92,3.473-9.964,5.2" transform="translate(-529.415 -370.654)" fill="#1f2040" fill-rule="evenodd"/>
        </g>
        <path id="Path_10776" data-name="Path 10776" d="M479.83,250.456l-8.851,79.233,3.926,67.455,15.736,1.558L500.9,332.64,508.6,298.6l7.056,40.783,26.13,57.739,17-5.619-17.42-61.813L540.1,250.035Z" transform="translate(-459.951 -250.035)" fill="#5b5d9d" fill-rule="evenodd"/>
        <path id="Path_10777" data-name="Path 10777" d="M506.414,296.251l-6.008-29.039a.507.507,0,1,0-.993.206l3.832,18.519c-9.131-5.655-11.267-11.291-11.288-11.348a.507.507,0,0,0-.955.342c.088.247,2.28,6.137,12.016,12.062a.492.492,0,0,0,.262.075.509.509,0,0,0,.189-.049l1.953,9.436a.506.506,0,0,0,.5.4.544.544,0,0,0,.1-.011A.506.506,0,0,0,506.414,296.251Z" transform="translate(-457.272 -247.788)" fill="#000563"/>
      </g>
      <g id="Group_37687" data-name="Group 37687" transform="translate(114.046 168.63)">
        <path id="Path_10778" data-name="Path 10778" d="M561.746,284.6,520.163,295.86l5.693,2.715,44.74-10.183Z" transform="translate(-513.161 -280.938)" fill="#612ba0" fill-rule="evenodd"/>
        <path id="Path_10779" data-name="Path 10779" d="M523.158,298.6a.479.479,0,0,1-.079-.007.507.507,0,0,1-.422-.579,7.229,7.229,0,0,1,1.59-2.956c.126-.166.247-.324.356-.476a37.157,37.157,0,0,1,5.476-5.908c7.035-6.286,16.443-8.758,24.548-6.45,4.6,1.31,8.639,4.644,11.643,7.4a.507.507,0,0,1-.686.747c-2.921-2.683-6.838-5.923-11.234-7.175-7.772-2.214-16.816.175-23.595,6.232a36.078,36.078,0,0,0-5.33,5.746c-.115.158-.239.323-.371.494a6.558,6.558,0,0,0-1.4,2.5A.507.507,0,0,1,523.158,298.6Z" transform="translate(-512.828 -281.371)" fill="#000563"/>
        <path id="Path_10780" data-name="Path 10780" d="M525.244,299.5c-.023,0-.045,0-.068,0a.508.508,0,0,1-.435-.572,6.521,6.521,0,0,1,1.138-2.527l.235-.372a37.865,37.865,0,0,1,4.308-5.725,34.4,34.4,0,0,1,3.269-3.172c5.147-4.326,13.375-7.93,19.63-3.844,2.971,1.94,4.588,5.139,6.152,8.232l.2.4a.507.507,0,0,1-.9.459l-.2-.4c-1.5-2.973-3.058-6.049-5.8-7.84-5.788-3.78-13.542-.331-18.423,3.772a33.193,33.193,0,0,0-3.173,3.079,36.921,36.921,0,0,0-4.195,5.573l-.243.384a5.7,5.7,0,0,0-.988,2.118A.508.508,0,0,1,525.244,299.5Z" transform="translate(-512.548 -281.354)" fill="#000563"/>
        <path id="Path_10781" data-name="Path 10781" d="M529.7,298.446a.512.512,0,0,1-.117-.014.506.506,0,0,1-.376-.61,14.366,14.366,0,0,1,2.483-4.657l.261-.372a38.051,38.051,0,0,1,2.546-3.309c.77-.882,1.17-1.283,1.967-2.08l.128-.128a20.187,20.187,0,0,1,2.339-2.031c1.776-1.3,7.179-5.256,11.339-2.294a8.669,8.669,0,0,1,2.5,3.454,34.744,34.744,0,0,1,2.272,7.417.507.507,0,0,1-.992.212,33.861,33.861,0,0,0-2.2-7.2,7.925,7.925,0,0,0-2.173-3.055c-3.194-2.276-7.323.214-10.15,2.286a19.08,19.08,0,0,0-2.221,1.93l-.128.128c-.781.78-1.173,1.173-1.921,2.03a36.98,36.98,0,0,0-2.478,3.221l-.264.376a13.656,13.656,0,0,0-2.326,4.307A.509.509,0,0,1,529.7,298.446Z" transform="translate(-511.951 -281.303)" fill="#000563"/>
        <path id="Path_10782" data-name="Path 10782" d="M533.226,363.341l-1.308-67.471-10.927-1.34-7,59.983Z" transform="translate(-513.988 -279.608)" fill="#612ba0" fill-rule="evenodd"/>
        <path id="Path_10783" data-name="Path 10783" d="M530.955,296.445a.622.622,0,0,1-.063,0l-10.732-1.348a.507.507,0,1,1,.127-1.006l10.732,1.348a.507.507,0,0,1-.063,1.01Z" transform="translate(-513.221 -279.668)" fill="#fff"/>
        <path id="Path_10784" data-name="Path 10784" d="M600.095,346l-27.417-60.431L532.93,296.194h0l-3.3.885,1.492,67.478,20.61-1.044,1.283-.567Z" transform="translate(-511.893 -280.808)" fill="#1f2040" fill-rule="evenodd"/>
        <path id="Path_10785" data-name="Path 10785" d="M549.873,359.7a.508.508,0,0,1-.489-.375l-16.959-62.991a.507.507,0,0,1,.98-.264l16.957,62.991a.506.506,0,0,1-.357.621A.486.486,0,0,1,549.873,359.7Z" transform="translate(-511.52 -279.452)" fill="#fff"/>
      </g>
      <g id="Group_37688" data-name="Group 37688" transform="translate(86.576)">
        <path id="Path_10786" data-name="Path 10786" d="M511.782,156.782c.637.421,2.722,1.432,3.69-2.568,0,0,.744-3.73-2.271-3.218l.354-7.108-11.834-6.467-4.958,1.431c-4.856,5.092-7.843,11.891-6.787,18.985.9,6.044,5.41,7.838,10.807,6.413v.008l-2.537,16.294s7.215,8.994,17.561-1.359C515.806,179.192,512.685,161.769,511.782,156.782Z" transform="translate(-489.764 -132.027)" fill="#ffa481" fill-rule="evenodd"/>
        <path id="Path_10787" data-name="Path 10787" d="M499.468,162.247a.507.507,0,0,1-.105-1,6.333,6.333,0,0,0,1.872-.953c.169-.11.332-.215.489-.313a29.725,29.725,0,0,0,5.543-4.595.507.507,0,0,1,.724.711,30.662,30.662,0,0,1-5.735,4.748c-.151.093-.306.194-.468.3a7.067,7.067,0,0,1-2.212,1.094A.568.568,0,0,1,499.468,162.247Z" transform="translate(-488.532 -129.641)" fill="#000563"/>
        <path id="Path_10788" data-name="Path 10788" d="M495.306,138.485a2.644,2.644,0,0,0,2.534,2.009c1.78.094,4.3.06,4.3.06s-6.011,2.5-3.564,3.794,6.1-1.08,6.1-1.08-2.812,2.657-1.033,3.969,7.024-1.031,7.024-1.031-4.308,2.81-3,4.683,2.154,1.311,2.154,1.311l-.937,3.653,3.537-3.88s2.889-.915,2.252,2.981c3.764-4.345,8.447-10.527,5.731-15.4,0,0,.751-6.408-7.866-6.81-5.139-.24-10.072-.069-14.845,1.938a4.135,4.135,0,0,0-2.034,1.6A2.949,2.949,0,0,0,495.306,138.485Z" transform="translate(-489.032 -132.664)" fill="#1f2040" fill-rule="evenodd"/>
      </g>
      <g id="Group_37691" data-name="Group 37691" transform="translate(42.937 44.918)">
        <g id="Group_37690" data-name="Group 37690">
          <g id="Group_37689" data-name="Group 37689" transform="translate(0 55.024)">
            <path id="Path_10789" data-name="Path 10789" d="M465.388,220.8s-4.411,18.623-10.177,63.64c0,0-9.3,9.523.71,10.32,0,0,1.847-.525.494-1.5s-1.2-.666-1.2-.666,1.81-2.509,3.377-2.331l1.876,1.431s1.237-.022.373-1.609a11.9,11.9,0,0,1-.222-5.4s15.954-24.265,24.591-61.9c0,0-8.9.794-12.1.244A33.47,33.47,0,0,1,465.388,220.8Z" transform="translate(-451.281 -220.798)" fill="#ffa481" fill-rule="evenodd"/>
            <path id="Path_10790" data-name="Path 10790" d="M455.613,287a.5.5,0,0,1-.091-.008,3.618,3.618,0,0,1-2.935-1.854,2.259,2.259,0,0,1-.01-1.818,1.284,1.284,0,0,1,.533-.651.507.507,0,0,1,.486.889.877.877,0,0,0-.092.172,1.247,1.247,0,0,0,.012,1c.272.623,1.007,1.047,2.186,1.261a.508.508,0,0,1-.091,1.007Zm-2.035-3.43h0Zm.026-.018Z" transform="translate(-451.132 -212.517)" fill="#000563"/>
            <path id="Path_10791" data-name="Path 10791" d="M454.313,286.716h-.006a2.817,2.817,0,0,1-2.917-2.251,3.694,3.694,0,0,1,0-1.279,2.886,2.886,0,0,1,.294-.991.508.508,0,1,1,.881.5,2.026,2.026,0,0,0-.17.629,2.7,2.7,0,0,0-.007.949,1.835,1.835,0,0,0,1.931,1.423.507.507,0,0,1-.006,1.015Z" transform="translate(-451.274 -212.606)" fill="#000563"/>
          </g>
          <path id="Path_10792" data-name="Path 10792" d="M550.762,225.306c5.842,32.824-3.961,61.028-3.961,61.028-.511,7.457-1.876,7.767-1.876,7.767-3.221,6.563-1.539-.205-1.539-.205-3.857,6.933-1.62-.39-1.62-.39-5.929,7.98-2.236-.9-2.236-.9-5.107,8.185-1.6-1.029-1.6-1.029l-1.679.534c-1.585-2.31,3.286-4.3,3.286-4.3-3.725-44.293-5.712-59.134-5.712-59.134l-.446-1.51,17-2.954Z" transform="translate(-440.282 -165.316)" fill="#ffa481" fill-rule="evenodd"/>
          <path id="Path_10793" data-name="Path 10793" d="M551.449,224.687c-1.166.972-7.468,5.606-19.4,3.943l-.158,3.307s17.046,1.686,20.793-5.058C552.082,225.812,551.7,225.129,551.449,224.687Z" transform="translate(-440.481 -165.253)" fill="#612ba0" fill-rule="evenodd"/>
          <path id="Path_10794" data-name="Path 10794" d="M481.263,225.621c-6.9,2.277-16.379.325-19.1-.32l-.479,2.995s13.41,3.515,19.264,1.889C481.141,227.422,481.263,225.621,481.263,225.621Z" transform="translate(-449.887 -165.171)" fill="#612ba0" fill-rule="evenodd"/>
          <path id="Path_10795" data-name="Path 10795" d="M559.287,220.966q-.963-4.742-2.136-9.44-2.016-8.056-4.661-15.937c-2.936-8.708-4.862-17.68-14.93-20.278a20.957,20.957,0,0,0-3.508-.315c-1.61-.126-3.163-.373-4.747-.528l-2.254-.22-3.129-.3c-.062.187-1.438,4.174-6.924,7.1-5.567,2.969-15.718,3.349-18.093-6.477l-6.028.538c-5.569.836-7.773,1.326-8.638,1.534-10.523,2.538-12.745,12.443-15.871,21.407a120.4,120.4,0,0,0-4.032,14.209c-.561,2.6-1.028,5.214-1.382,7.846-.143,1.066-2.238,11.231-1.495,11.892,0,0,11.717,3.194,19.856.51,0,0-1.43,21.169-2.155,30.116,0,0,37.369,5.058,63.5-.281l-3.405-36.229,1.719,9.257c13.661,2.1,20.144-4.06,20.15-4.065C561.993,230.347,559.578,222.4,559.287,220.966Z" transform="translate(-449.939 -172.051)" fill="#4dc452" fill-rule="evenodd"/>
          <path id="Path_10796" data-name="Path 10796" d="M494.394,174.523l3.558-2.248s.188,5.994,6.181,6.744S515,172.65,515,172.65l4.495,1.5s-1.311,4.121-6.93,7.118S496.642,184.638,494.394,174.523Z" transform="translate(-445.505 -172.275)" fill="#612ba0" fill-rule="evenodd"/>
          <path id="Path_10797" data-name="Path 10797" d="M479.34,230.228a.517.517,0,0,1-.071,0,.507.507,0,0,1-.431-.573l4.5-32.03a.507.507,0,0,1,1,.141l-4.5,32.03A.506.506,0,0,1,479.34,230.228Z" transform="translate(-447.59 -168.938)" fill="#000563"/>
          <path id="Path_10798" data-name="Path 10798" d="M530.431,223.666a.506.506,0,0,1-.5-.455L527.151,196.5a.507.507,0,1,1,1.008-.1l2.776,26.707a.507.507,0,0,1-.451.557Z" transform="translate(-441.116 -169.104)" fill="#000563"/>
        </g>
      </g>
    </g>
    <g id="Group_37708" data-name="Group 37708" transform="translate(309.996 126.474)">
      <g id="Group_37696" data-name="Group 37696" transform="translate(0 132.389)">
        <g id="Group_37693" data-name="Group 37693" transform="translate(0 147.228)">
          <path id="Path_10799" data-name="Path 10799" d="M300.819,373.054l-1.264,18.966-18.123,5.057,31.188,2.529,5.057-25.287Z" transform="translate(-276.374 -373.054)" fill="#ffca9f" fill-rule="evenodd"/>
          <path id="Path_10800" data-name="Path 10800" d="M295.938,390.151,301,393.944l13.431.027-.844,7.164-36.61-4.242A43.342,43.342,0,0,1,295.938,390.151Z" transform="translate(-276.972 -370.764)" fill="#1f2040" fill-rule="evenodd"/>
        </g>
        <g id="Group_37694" data-name="Group 37694" transform="translate(144.981 123.205)">
          <path id="Path_10801" data-name="Path 10801" d="M404.824,363.671l14.33,8.851-.422,16.858,12.222-26.13L414.517,351.87Z" transform="translate(-404.824 -351.87)" fill="#ffca9f" fill-rule="evenodd"/>
          <path id="Path_10802" data-name="Path 10802" d="M416.823,375.737l4.214-2.529L426,359.327l5.058,3.793s-12.973,26.946-14.1,28.351C414.716,380.513,416.823,375.737,416.823,375.737Z" transform="translate(-403.336 -350.871)" fill="#1f2040" fill-rule="evenodd"/>
        </g>
        <g id="Group_37695" data-name="Group 37695" transform="translate(22.618)">
          <path id="Path_10803" data-name="Path 10803" d="M322.767,243.221l-18.451,72.66s-5.712,28.209-7.4,77.378c0,0,8.186,4.019,20.23,3.091,0,0,10.041-41,14.314-68.559l19.4-39.614,20.826,54.538L419.7,382.3S431.26,373,432.064,366c0,0-21.117-26.5-39.013-44.954,0,0-.041-32.313-3.412-75.019Z" transform="translate(-296.918 -243.221)" fill="#1f2040" fill-rule="evenodd"/>
          <path id="Path_10804" data-name="Path 10804" d="M349.227,292.714l-9.693-28.658a.507.507,0,1,0-.96.324l4.856,14.356c-5.309-1.2-9.833-6.769-9.88-6.828a.507.507,0,0,0-.791.634c.209.262,5.123,6.316,11.046,7.3l4.463,13.193a.506.506,0,0,0,.481.345.545.545,0,0,0,.162-.026A.509.509,0,0,0,349.227,292.714Z" transform="translate(-292.131 -240.476)" fill="#fff"/>
        </g>
      </g>
      <g id="Group_37698" data-name="Group 37698" transform="translate(27.308)">
        <path id="Path_10805" data-name="Path 10805" d="M403.976,178.918s-6.61-9.006-37.129-11.383c0,0-7.434,12.5-15.7.033-.212-.32-15.645-.8-36.8,7.7,0,0-11.52,7.024-13.292,42a11.2,11.2,0,0,1,1.988.311c2.938.739,11.97.276,21.23-1.746l1.915-.107-1.208,8.266-4.452,31.631s22.337,7.164,70.383,4.637c.89-20.644,1-35.483.836-45.761,2.946.65,6.292,1.428,9.981,2.35C401.727,216.849,409.876,185.1,403.976,178.918Z" transform="translate(-301.054 -120.987)" fill="#4dc452" fill-rule="evenodd"/>
        <g id="Group_37697" data-name="Group 37697" transform="translate(36.681)">
          <path id="Path_10806" data-name="Path 10806" d="M340.515,135.224s.575-6.731,9.379-8.418,14.8,3.372,16.108,7.68-.937,12.925-4.308,14.986a4.513,4.513,0,0,1-5.807-.75Z" transform="translate(-332.448 -126.474)" fill="#1f2040" fill-rule="evenodd"/>
          <path id="Path_10807" data-name="Path 10807" d="M340.913,134.19s-10.716,25.666,6.058,25.762l-2.111,12.275s8.819,13.5,17.021-.139c0,0-.538-4.731-1.745-21.768,0,0,5.917-1.758,4.81-6.156,0,0-1.474-5.118-7.441,1.134,0,0-1.78-3.228,1.029-8.577Z" transform="translate(-332.846 -125.44)" fill="#ffa481" fill-rule="evenodd"/>
          <path id="Path_10808" data-name="Path 10808" d="M346.161,158.214a.46.46,0,0,1-.214-.05.524.524,0,0,1-.268-.291.509.509,0,0,1,.479-.679h0c.086-.022.21-.066.226-.071a10.084,10.084,0,0,0,1.552-.779,19.135,19.135,0,0,0,5.4-4.865.507.507,0,1,1,.812.608,20.19,20.19,0,0,1-5.7,5.132,11.017,11.017,0,0,1-1.717.856A1.749,1.749,0,0,1,346.161,158.214Z" transform="translate(-331.76 -123.151)" fill="#000563"/>
          <path id="Path_10809" data-name="Path 10809" d="M357.564,147.785a1.6,1.6,0,0,1-.693-.154.507.507,0,1,1,.437-.915.735.735,0,0,0,.624-.035,1.048,1.048,0,0,0,.561-.674,1.669,1.669,0,0,0-.759-1.623.509.509,0,0,1-.127-.7,2.038,2.038,0,0,1,2.3-.778.508.508,0,0,1-.322.963,1.018,1.018,0,0,0-.8.086,2.564,2.564,0,0,1,.7,2.271,2.043,2.043,0,0,1-1.108,1.365A1.867,1.867,0,0,1,357.564,147.785Z" transform="translate(-330.295 -124.286)" fill="#000563"/>
          <path id="Path_10810" data-name="Path 10810" d="M333.4,168.564s1.9,16.106,16.51,17.043,23.976-16.858,23.976-16.858l-14.986-1.5S344.337,166.57,333.4,168.564Z" transform="translate(-333.401 -121.026)" fill="#ffa481" fill-rule="evenodd"/>
        </g>
      </g>
      <g id="Group_37704" data-name="Group 37704" transform="translate(48.873 29.373)">
        <path id="Path_10811" data-name="Path 10811" d="M320.1,189.29l20.985-4.711,36.088,1.5L362.5,193.742l-12.1-.093-10.361-1.017L327.9,190.889Z" transform="translate(-320.068 -148.062)" fill="#1f2040" fill-rule="evenodd"/>
        <path id="Path_10812" data-name="Path 10812" d="M353.561,176.55l-.034-1.6a6.245,6.245,0,0,0-2.859.075l-.07,1.455-10.037-.228s-.389,18.678-.543,18.816c-.057.051,13.649.16,13.649.16.24-7.9.64-18.663.64-18.663Z" transform="translate(-317.398 -149.366)" fill="#fff" fill-rule="evenodd"/>
        <g id="Group_37701" data-name="Group 37701" transform="translate(30.841)">
          <g id="Group_37699" data-name="Group 37699" transform="translate(4.47 0.452)">
            <path id="Path_10813" data-name="Path 10813" d="M351.21,201.46s10.3-35.2,27.809-46.1c0,0,10.8-7.679,9.209,3.435a248.436,248.436,0,0,0-16.482,32.3l-3.693,12.279Z" transform="translate(-351.21 -152.776)" fill="#f8be17" fill-rule="evenodd"/>
            <path id="Path_10814" data-name="Path 10814" d="M364.651,193.073a.565.565,0,0,1-.152-.022.508.508,0,0,1-.069-.953c.085-.069.257-.238.319-.3s.113-.109.129-.121c.125-.1.253-.2.383-.305a6.331,6.331,0,0,0,1.37-1.309c-.091-.027-.2-.053-.283-.073a1.421,1.421,0,0,1-1.07-.616.9.9,0,0,1,.022-.794,7,7,0,0,1,2.106-2.276c.353-.285.686-.553.953-.816l.129-.124c.184-.175.566-.537.535-.717a1.284,1.284,0,0,0-.3-.176,1.252,1.252,0,0,1-.832-.923,2.307,2.307,0,0,1,.739-1.644l.077-.092a9.929,9.929,0,0,1,.917-.925,4.857,4.857,0,0,0,1.326-1.6c.036-.1.048-.128-.243-.42a2.579,2.579,0,0,1-.413-.494,1.811,1.811,0,0,1,.088-2.051,6.806,6.806,0,0,1,1.713-1.647,5.1,5.1,0,0,0,1.532-1.516c.112-.212.093-.322-.573-.827-.55-.417-1.47-1.116-.887-2.241a5.34,5.34,0,0,1,2.352-1.92c.239-.13.472-.255.676-.381l.223-.133c.445-.263.864-.511.953-.9a.367.367,0,0,0-.032-.3c-.2-.32-.97-.49-1.428-.592l-.255-.059a1.391,1.391,0,0,1-1.1-1.439,2.564,2.564,0,0,1,.973-1.626,9.9,9.9,0,0,1,1.965-1.3,8.23,8.23,0,0,0,1.888-1.271c.312-.31.329-.469.318-.5a2.56,2.56,0,0,0-1.817-.408,5.616,5.616,0,0,0-1.438.329.507.507,0,0,1-.362-.948,6.583,6.583,0,0,1,1.7-.39c.589-.057,2.37,0,2.83.987.166.352.209.923-.521,1.647a9.161,9.161,0,0,1-2.113,1.44,8.964,8.964,0,0,0-1.769,1.159c-.513.471-.634.777-.646.95-.02.282.271.367.33.382l.237.053a3.158,3.158,0,0,1,2.065,1.041,1.382,1.382,0,0,1,.163,1.069,2.561,2.561,0,0,1-1.427,1.546l-.208.125c-.219.134-.466.269-.723.408a4.674,4.674,0,0,0-1.935,1.495c-.152.293-.1.437.6.965.526.4,1.408,1.068.856,2.11a5.938,5.938,0,0,1-1.818,1.851,5.967,5.967,0,0,0-1.474,1.389.82.82,0,0,0-.07.976,1.86,1.86,0,0,0,.262.3,1.33,1.33,0,0,1,.477,1.486,5.528,5.528,0,0,1-1.59,1.991,8.946,8.946,0,0,0-.823.826l-.083.1c-.175.209-.539.643-.51.863.024.019.181.1.276.144a1.306,1.306,0,0,1,.849.916c.12.712-.456,1.26-.838,1.622l-.116.111c-.3.3-.654.582-1.027.882a6.629,6.629,0,0,0-1.78,1.826c.1.031.229.062.32.083.4.094.9.211,1.077.659a.994.994,0,0,1-.162.934,7.06,7.06,0,0,1-1.607,1.573c-.126.1-.249.2-.368.293l-.062.062C365.094,192.881,364.9,193.073,364.651,193.073Z" transform="translate(-349.479 -152.042)" fill="#fff"/>
          </g>
          <g id="Group_37700" data-name="Group 37700">
            <path id="Path_10815" data-name="Path 10815" d="M367,156.709c-10.4,11.438-19.732,44.485-19.732,44.485l4.709.8,4.071.8L361,204.067l3.116-7.222s6.856-14.382,10.315-25.959a50.886,50.886,0,0,0,2.436-13.529l.108-.228C377.74,146.688,367,156.709,367,156.709Z" transform="translate(-347.268 -152.377)" fill="#f8be17" fill-rule="evenodd"/>
            <path id="Path_10816" data-name="Path 10816" d="M356.046,197.231a.3.3,0,0,1-.045,0,.506.506,0,0,1-.339-.821,2.7,2.7,0,0,0-.037-.43,2.6,2.6,0,0,0-1.247-1.281,5.888,5.888,0,0,0-1.963-.417,9.041,9.041,0,0,1-1.685-.278c-.926-.276-1.448-.9-1.359-1.628a2.869,2.869,0,0,1,1.524-1.91,12.126,12.126,0,0,1,4.137-1.45c.374-.083.75-.164,1.118-.256.658-.162,1.759-.433,1.961-1.1a.933.933,0,0,0-.032-.785c-.358-.591-1.681-.836-2.647-1.014a8.886,8.886,0,0,1-1.387-.327c-1.012-.383-1.874-1.234-1.522-2.274.759-2.238,3.673-3.141,5.8-3.8l.908-.282c.682-.205,1.711-.516,1.9-1.093a1,1,0,0,0-.024-.843c-.359-.6-1.654-.828-2.513-.98-.218-.04-.421-.075-.6-.113-.574-.122-2.067-.442-1.876-1.682.179-1.169,1.569-1.861,2.49-2.318.119-.059.23-.115.329-.166.777-.407,1.578-.787,2.354-1.154.742-.352,1.508-.716,2.245-1.1l.244-.126a3.465,3.465,0,0,0,1.557-1.171c0-.108-.207-.29-.723-.417a9.189,9.189,0,0,0-1.964-.194c-.408-.012-.829-.025-1.253-.068-.388-.04-1.379-.141-1.445-1.013-.078-1.038.911-1.69,1.565-2.122l.185-.124c.618-.42,1.279-.786,1.919-1.139a12.805,12.805,0,0,0,3.036-2.067,4.045,4.045,0,0,0,.35-.4c.176-.245.177-.364.169-.375a2.957,2.957,0,0,0-1.949-.251,15.782,15.782,0,0,0-1.614.344.507.507,0,1,1-.246-.984,16.532,16.532,0,0,1,1.718-.363c.024,0,2.328-.313,2.96.728a1.287,1.287,0,0,1-.213,1.492,4.857,4.857,0,0,1-.454.517,13.721,13.721,0,0,1-3.267,2.243c-.619.342-1.26.7-1.838,1.09l-.2.13c-.456.3-1.146.757-1.112,1.2a3.386,3.386,0,0,0,.522.078c.4.041.787.052,1.194.064a10.124,10.124,0,0,1,2.177.225,2.065,2.065,0,0,1,1.42.915,1.047,1.047,0,0,1-.028.933,4.154,4.154,0,0,1-2.008,1.63l-.236.12c-.753.391-1.529.759-2.278,1.115-.767.364-1.559.739-2.319,1.137-.1.054-.221.112-.347.175-.688.342-1.839.914-1.939,1.564-.045.294.768.468,1.074.533.178.039.369.073.574.109,1.1.2,2.607.464,3.2,1.456a1.965,1.965,0,0,1,.12,1.676c-.349,1.084-1.686,1.487-2.571,1.753l-.9.28c-1.811.561-4.547,1.407-5.14,3.157-.193.569.911.994.922,1a8.128,8.128,0,0,0,1.211.278c1.283.237,2.736.506,3.33,1.486a1.911,1.911,0,0,1,.135,1.608c-.371,1.212-1.821,1.571-2.688,1.785-.378.093-.761.177-1.146.262a11.194,11.194,0,0,0-3.8,1.311c-.468.3-1.014.712-1.069,1.179-.04.323.57.515.64.535a8.386,8.386,0,0,0,1.5.24,6.685,6.685,0,0,1,2.305.515,3.6,3.6,0,0,1,1.771,1.9c0,.006.231.933-.079,1.33A.643.643,0,0,1,356.046,197.231Z" transform="translate(-346.988 -151.46)" fill="#fff"/>
            <path id="Path_10817" data-name="Path 10817" d="M363.367,194.474a.489.489,0,0,1-.205-.044.507.507,0,0,1-.259-.669c3.748-8.436,5.864-14.675,5.884-14.737,5.839-17.485,5.716-22.05,5.714-22.1a.508.508,0,0,1,1.014-.052c.01.183.177,4.672-5.765,22.471-.022.064-2.153,6.348-5.919,14.826A.506.506,0,0,1,363.367,194.474Z" transform="translate(-345.179 -151.838)" fill="#000563"/>
          </g>
        </g>
        <g id="Group_37702" data-name="Group 37702" transform="translate(7.968 27.657)">
          <path id="Path_10818" data-name="Path 10818" d="M334.745,183.878a7.08,7.08,0,0,1,.583-1.933,3.955,3.955,0,0,1,3.413-2.148,6.69,6.69,0,0,1,2.832.18,4.425,4.425,0,0,1,3.338,4.667,16.183,16.183,0,0,1,1.407.8,6.406,6.406,0,0,1,1.176,1.293,6.889,6.889,0,0,1,1.239,3.319,3.946,3.946,0,0,1-1.043,3.236,8.915,8.915,0,0,1-3.1,2.437c-1.981.922-5.2,1.266-6.835-.524a8.518,8.518,0,0,1-.67-1.218c-2.287,1.613-6.536,1.554-8.334-.88a7.468,7.468,0,0,1-1.192-5.884C328.215,183.683,331.811,181.995,334.745,183.878Z" transform="translate(-327.056 -176.37)" fill="#ff6364" fill-rule="evenodd"/>
          <path id="Path_10819" data-name="Path 10819" d="M337.515,183.471c.019.07.366-.344.4-.379a13.545,13.545,0,0,1,1.408-1.215c.43-.333.871-.657,1.327-.951.208-.135.628-.288.771-.5,0,0-.6.15-.658.169a14.666,14.666,0,0,0-1.385.579c-.069.033-.586.357-.5.1a2.5,2.5,0,0,1,.652-.8,16.8,16.8,0,0,1,1.88-1.582q.509-.369,1.033-.712c.093-.06.334-.118.263-.2-.04-.047-.348.082-.355.084-.247.092-.493.2-.731.314a9.676,9.676,0,0,0-2.119,1.381c-.144.122-.568.736-.765.752-.1.007.156-.644.162-.657a13.627,13.627,0,0,1,1.209-2.312c.126-.187.261-.366.393-.549.048-.067.185-.243.105-.222a2.748,2.748,0,0,0-.967.739,8.593,8.593,0,0,0-1.908,2.9,4.861,4.861,0,0,0-.335,1.1,3.4,3.4,0,0,0-.081.615A5.436,5.436,0,0,0,337.515,183.471Z" transform="translate(-325.729 -176.767)" fill="#9dbb17" fill-rule="evenodd"/>
          <path id="Path_10820" data-name="Path 10820" d="M330.091,186.539a22.331,22.331,0,0,0-2.126-1.812c-.112-.087-.863-.483-.866-.657s.623-.142.687-.142a4.529,4.529,0,0,1,1.878.412,3.532,3.532,0,0,1,.382.205c.092.058.315.278.272.178a11.849,11.849,0,0,0-1.656-2.383c-.2-.265-.416-.52-.633-.776-.02-.025-.218-.231-.119-.289.245-.143.819.5.956.645a10.021,10.021,0,0,1,1.776,2.7,7.715,7.715,0,0,1,.359.895l.065.187c.022.059.062.234.074.172a3.758,3.758,0,0,0-.156-1.111c-.121-.733-.21-1.464-.264-2.2-.036-.491-.084-.987-.076-1.48,0-.146.029-.514.138-.416.308.276.271,1.161.314,1.523a33.7,33.7,0,0,1,.262,3.958,11.963,11.963,0,0,1-.069,1.306c0,.012-.033.391-.041.39Z" transform="translate(-327.098 -176.246)" fill="#9dbb17" fill-rule="evenodd"/>
          <path id="Path_10821" data-name="Path 10821" d="M341.526,188.621c.026-.086.047-.173.077-.259a7.471,7.471,0,0,1,.64-1.334c.464-.767,1-1.495,1.5-2.234a5.537,5.537,0,0,1,1.1-1.472c.334-.234.084.6.048.676-.305.658-.7,1.272-1,1.93-.016.035-.206.392-.152.488.028.05.111-.04.155-.076.21-.175.413-.358.626-.528a14.563,14.563,0,0,1,1.932-1.323c.117-.066.675-.439.832-.305.067.057-.14.232-.141.232-.227.219-.484.411-.726.611-.794.658-1.558,1.347-2.308,2.055-.133.125-.6.456-.618.67-.006.083.8-.2.853-.219a12.933,12.933,0,0,1,1.75-.434c.06-.01.5-.117.564-.024.046.073-.316.221-.335.229-.53.246-1.057.492-1.576.76a19.031,19.031,0,0,0-1.882,1.058,7.724,7.724,0,0,0-.786.6c-.068.06-.187.221-.287.23-.118.011-.172-.213-.2-.289A1.1,1.1,0,0,1,341.526,188.621Z" transform="translate(-325.176 -175.894)" fill="#9dbb17" fill-rule="evenodd"/>
        </g>
        <g id="Group_37703" data-name="Group 37703" transform="translate(0 37.962)">
          <path id="Path_10822" data-name="Path 10822" d="M362.484,192.773a208.07,208.07,0,0,1-42.41-4.053c-.1-.02,2.113,45.321,2.113,45.321l41,1.484-.7-42.754Z" transform="translate(-320.071 -185.47)" fill="#fff"/>
          <path id="Path_10823" data-name="Path 10823" d="M372.132,185.854l-14.653,7.3.7,42.754,9.5.344Z" transform="translate(-315.059 -185.854)" fill="#ff6364"/>
        </g>
      </g>
      <g id="Group_37706" data-name="Group 37706" transform="translate(41.444 55.697)">
        <path id="Path_10824" data-name="Path 10824" d="M376.194,205.769c-3.952,11.178-7.509,21-7.934,23.765l-6.414-.12-48.327,8.429a204.309,204.309,0,0,0,24.444,9.554s24.445,6.743,47.391,3.09a238.531,238.531,0,0,0,13.662-40.642s-6.671-1.256-12.664-2.342C380.974,206.53,376.208,205.712,376.194,205.769Z" transform="translate(-313.519 -171.548)" fill="#ffa481" fill-rule="evenodd"/>
        <g id="Group_37705" data-name="Group 37705" transform="translate(58.216)">
          <path id="Path_10825" data-name="Path 10825" d="M374.155,184.708,365.3,209.855l28.8,6.181s3.09-17.28,3.512-25.708-1.405-13.768-7.164-14.47S377.807,175.156,374.155,184.708Z" transform="translate(-364.797 -175.591)" fill="#4dc452" fill-rule="evenodd"/>
          <path id="Path_10826" data-name="Path 10826" d="M392.9,215.181a.529.529,0,0,1-.1-.01l-27.535-5.62a.5.5,0,0,1-.34-.247.51.51,0,0,1-.036-.418l9.553-26.973a.507.507,0,1,1,.957.338l-9.359,26.424,26.964,5.5a.507.507,0,0,1-.1,1Z" transform="translate(-364.857 -174.789)" fill="#000563"/>
        </g>
        <path id="Path_10827" data-name="Path 10827" d="M372.29,236.145a.507.507,0,0,1-.481-.347c-.872-2.615-7.635-6.973-10.167-8.431a.507.507,0,0,1,.507-.879c.384.222,9.452,5.476,10.623,8.989a.508.508,0,0,1-.321.642A.5.5,0,0,1,372.29,236.145Z" transform="translate(-307.106 -168.781)" fill="#000563"/>
      </g>
      <g id="Group_37707" data-name="Group 37707" transform="translate(28.263 94.913)">
        <path id="Path_10828" data-name="Path 10828" d="M323.532,210.173c-.067.175.441,6.943.441,6.943l39.16.654,2.658-4.259a3.189,3.189,0,0,1,.259,3.849l6.044-.029s1.745,1.312-3.236,2.656l3.928.276s1.118,1.43-4.6,2.314l4.628.488s.561.983-4.356,1.686l3.442.645-5.6,2.585s-25.1,11.239-63.4,13.367a128.43,128.43,0,0,1-.335-29.562S307.236,212.422,323.532,210.173Z" transform="translate(-301.896 -210.173)" fill="#ffa481" fill-rule="evenodd"/>
        <path id="Path_10829" data-name="Path 10829" d="M316.8,238.832a.508.508,0,0,1-.076-1.009,336.442,336.442,0,0,0,37.867-8.414c.086-.029,10.52-3.495,15.126-6.189a.507.507,0,0,1,.513.875c-4.7,2.749-14.906,6.139-15.339,6.282a337.242,337.242,0,0,1-38.014,8.448A.439.439,0,0,1,316.8,238.832Z" transform="translate(-299.967 -208.434)" fill="#000563"/>
        <path id="Path_10830" data-name="Path 10830" d="M322.975,216.558h0l-8.653-.025a.507.507,0,0,1,0-1.014h0l8.652.025a.507.507,0,0,1,0,1.014Z" transform="translate(-300.299 -209.457)" fill="#000563"/>
      </g>
    </g>
    <g id="Group_37723" data-name="Group 37723" transform="translate(30.484 142.479)">
      <g id="Group_37712" data-name="Group 37712" transform="translate(0 117.434)">
        <g id="Group_37711" data-name="Group 37711" transform="translate(0 38.383)">
          <g id="Group_37709" data-name="Group 37709">
            <path id="Path_10831" data-name="Path 10831" d="M67.579,293.478c-.911-.4-2.177.755-2.855,1.218a13.27,13.27,0,0,1-1.365.887c-.314-.836,3.26-7.158,1.119-7.372-1.584-.158-3.278,2.922-3.975,3.951-.57.843-1.455,2.142-1.476,2.092-.323-.775,5.005-10.438,1.3-10.756-1.836-.158-3.148,1.544-4.047,2.908-.52.79-.975,1.619-1.461,2.431-.205.345-.425.678-.643,1.014-.039.058-.856,1.05-.882.851a6.482,6.482,0,0,1,.539-2.553c.274-.963.628-1.9.826-2.886.22-1.092.676-3.76-1.174-3.636-1.914.129-3.107,1.979-3.942,3.5-.271.493-2.144,4.849-2.809,4.324a.722.722,0,0,1-.212-.4,8.052,8.052,0,0,1,.108-2.888c.192-1.665,1.3-8.506-2.067-8.148-3.121.333-4.613,5.058-5.169,7.544-.1.44-.406,3.521-.734,3.421a.44.44,0,0,1-.236-.272,7.123,7.123,0,0,1-.4-1.229,30.832,30.832,0,0,0-.755-3.227,14.886,14.886,0,0,0-1.476-3.135,3.745,3.745,0,0,0-2.1-1.82c-1.168-.239-1.777.693-2.511,1.39a2.5,2.5,0,0,0-.535,1.4,17.914,17.914,0,0,0-.012,4.725,65.074,65.074,0,0,0,3.323,12.564c2.852,8.517,5.044,17.083,7.408,25.721.362,1.319,1.041,6.87,2.609,7.458,1.664.624,3.988-.026,5.691-.286,2.031-.308,4.046-.718,6.042-1.2.54-.132,1.352-.335,1.657-.86a4.254,4.254,0,0,0,.222-1.671c.065-1.116-.091-2.241-.014-3.352a49.132,49.132,0,0,1,3.385-14.915c1.751-4.388,4.808-8.059,6.559-12.4C67.921,296.856,69.167,294.171,67.579,293.478Z" transform="translate(-30.484 -277.995)" fill="#6bc5d2" fill-rule="evenodd"/>
            <path id="Path_10832" data-name="Path 10832" d="M55.541,292.178c-1.688-3.617-4.116,5.867-6.112,7.031-.281.164.139-.637.255-.941.29-.762.551-1.52.79-2.3a36.038,36.038,0,0,0,1.732-8.181c.035-.543.356-3.167-.733-3.033-1.352.167-2.334,1.92-2.974,2.929-2.267,3.572-3.231,7.717-4.765,11.609-.17.434.137-.924.221-1.383.194-1.056.409-2.107.616-3.16.7-3.586,1.673-7.513,1.116-11.179-.144-.949-.35-2.976-1.639-3.091-.884-.079-1.353,1.351-1.615,1.964-1.246,2.927-1.517,6.4-1.685,9.541q-.1,1.893-.151,3.787c-.011.4-.028,1.557-.175,1.185-1.529-3.89-.463-8.56-2.673-12.329-.77-1.314-2.688-2.911-4.172-1.581-2.926,2.621-.838,8.6,0,11.772,1.473,5.569,3.8,10.868,5.416,16.385,1.506,5.131,2.27,10.452,3.707,15.606.439,1.577,1.085,7.359,2.58,8.355.413.276,2.3-1.432,2.649-1.661.422-.279,1.08-.684,1.984-1.375l1.053-1.177c-1.36-1.038-.133-7.815.135-9.766.923-6.741,2.871-13.232,4.252-19.882C55.928,298.544,56.809,294.894,55.541,292.178Z" transform="translate(-30.272 -277.663)" fill="#fff"/>
          </g>
          <g id="Group_37710" data-name="Group 37710" transform="translate(9.765 42.546)">
            <path id="Path_10833" data-name="Path 10833" d="M56.176,335.549a13.145,13.145,0,0,0,15.224-3.68c3.478-4.5,1.622-10.511-2.5-13.881-4.718-3.858-11.02-3.065-15.047,1.417a12.716,12.716,0,0,0-2.227,3.471C49.647,327.494,51.461,333.381,56.176,335.549Z" transform="translate(-37.523 -315.515)" fill="#5b5d9d" fill-rule="evenodd"/>
            <path id="Path_10834" data-name="Path 10834" d="M44.981,324.492a11.008,11.008,0,0,0-2.345,1.448c-2.093,2.156-3.891,5.19-3.482,8.308a11.245,11.245,0,0,0,15.74,8.873c11.391-4.959,2.688-25.754-9.167-19.054Z" transform="translate(-39.096 -314.545)" fill="#4dc452" fill-rule="evenodd"/>
            <path id="Path_10835" data-name="Path 10835" d="M55.676,337.128c-1.994,9.042,12.577,12.65,17.462,6.412,6.363-8.122-8.513-20.463-15.64-10.408A11.585,11.585,0,0,0,55.676,337.128Z" transform="translate(-36.899 -313.66)" fill="#4dc452" fill-rule="evenodd"/>
          </g>
          <path id="Path_10836" data-name="Path 10836" d="M91.326,304.587c-.953-.361-4.69.34-4.726-.23a51.05,51.05,0,0,1-.006-5.62c.05-1.069-.395-1.47-1.428-1.541a63.131,63.131,0,0,0-9.479.278c-1.076.087-1.347.422-1.411,1.465-.058.954.065,1.912.04,2.867.032.552.116,2.92-.1,2.92-.711,0-2.805.136-3.527.2-.313.028-.675.088-.826.364a.964.964,0,0,0-.078.476c.034,6.222-.192,12.451-.315,18.682-.074,3.687-.428,7.724-.629,11.4-.263,4.8-.462,9.051-.889,13.95-.069.789,5.075,1.047,5.55,1.125q2.795.461,5.619.713t5.655.3c1.507.023,3.015.416,4.488.051a.258.258,0,0,0,.253-.281c.28-2.949.407-5.906.5-8.83.1-3.08.264-5.921.479-8.994.5-7.256.781-14.6.9-21.882.036-2.342.153-4.671.163-7.01a.532.532,0,0,0-.043-.263A.35.35,0,0,0,91.326,304.587Z" transform="translate(-25.465 -275.434)" fill="#6bc5d2" fill-rule="evenodd"/>
          <path id="Path_10837" data-name="Path 10837" d="M122.18,310.021a16.343,16.343,0,0,0-.227-4.692.263.263,0,0,0-.307-.237l-5.736-.264c-.265-.012-1.05.092-1.251-.088-.22-.2-.15-.915-.172-1.2-.077-.945-.141-1.891-.159-2.841-.006-.288.105-2.134-.278-2.223a19,19,0,0,0-7.269-.052.472.472,0,0,0-.308.145.478.478,0,0,0-.062.273,40.133,40.133,0,0,0,.352,6.173l-5.95.246a.739.739,0,0,0-.61.222.723.723,0,0,0-.088.4c-.033,1.324.012,2.632.012,3.956,0,2.4-.032,4.793.032,7.187.031,1.128.086,2.257.115,3.386.189,7.694.252,15.448-.033,23.183-.088,2.417-.171,4.817-.09,7.237a2.269,2.269,0,0,0,.159.907c.339.71,1.464.549,2.092.62.968.111,1.947.144,2.932.175l6.583.205c1.323.042,2.647.083,3.969.021q1.223-.056,2.435-.228a4.448,4.448,0,0,0,2.173-.75c.976-.772.737-2.27.814-3.384l.333-4.832c.6-8.665.581-17.319.581-26.015C122.221,315.044,122.163,312.532,122.18,310.021Z" transform="translate(-21.157 -275.302)" fill="#5b5d9d" fill-rule="evenodd"/>
          <path id="Path_10838" data-name="Path 10838" d="M111.657,324.519a6.774,6.774,0,0,0-.144-1.53.623.623,0,0,0-.189-.371.677.677,0,0,0-.4-.1c-.179,0-2.167-.041-2.166-.094.02-.692.025-1.6.011-1.931a11.3,11.3,0,0,0-.118-2.644c-.769-1.154-7.017-.872-7.13.319-.213,2.235-.319,3.193-.357,4.3-3.723-.041-7.445-.076-11.169-.076q-.76,0-1.523-.008c-1.1-.012-2.207-.033-3.31-.051-.517-.008-1.041.007-1.554-.008s-1.047-.063-1.576-.06l-2.482.022a1.129,1.129,0,0,0-.339.037.717.717,0,0,0-.4.51,4.239,4.239,0,0,0-.163.956c-.016.322-.115.651-.149.974-.07.674-.054,1.349-.077,2.024-.124,3.723.027,4.226-.213,6.918-.3,3.357-.193,7.1-.336,10.463-.052,1.228-.265,3.02.59,4.062a3.152,3.152,0,0,0,1.769.8c2.447.212,5.07.589,6.7.745,6.705.638,10.18.883,16.376,1.42,1.81.156,3.308.4,5.123.5.4.02,1.645.246,1.935-.17,1.281-1.853.9-5.149.892-7.194-.019-4.767.235-8.408.365-13.177.024-.873.051-1.75-.007-2.621-.025-.375-.016-.731-.01-1.107l.036-2.331C111.655,324.9,111.658,324.711,111.657,324.519Z" transform="translate(-24.143 -272.754)" fill="#612ba0" fill-rule="evenodd"/>
        </g>
        <path id="Path_10839" data-name="Path 10839" d="M161.969,248.139a3.917,3.917,0,1,0-7.834,0,4,4,0,0,0,1.346,2.988l-7.822,31.582L44.246,293.247l-.019,0-11.966,1.219a1.458,1.458,0,0,0-1.309,1.518L33.608,354.2a1.46,1.46,0,0,0,1.34,1.388l13.914,1.129.054,0,71.957,5.838q.483.039.959.039c.074,0,.146-.008.22-.009l11.482,26.339a2.548,2.548,0,0,1-2.336,3.568h-.022l-88.917-.734h-.012a1.459,1.459,0,0,0-.012,2.918l2.736.023a38.4,38.4,0,0,1,.609,4.154A35.684,35.684,0,0,0,46.54,404a7.517,7.517,0,1,0,9.383,1.09,21.033,21.033,0,0,0,1.589-7.256c.1-1.012.223-2.018.355-3.027l61.543.508.025.09c.366,1.279.666,2.575.993,3.865.254,1,.51,2.006.743,3.014.1.409.194.925.307,1.488a7.91,7.91,0,1,0,8.88.085,44.344,44.344,0,0,0,1.125-6.04c.045-.339.311-1.449.418-2.451a5.468,5.468,0,0,0,4.309-7.607l-11.17-25.622a11.538,11.538,0,0,0,8.021-8.345l17.173-69.335c.008-.031.016-.061.023-.093l7.988-32.251A3.951,3.951,0,0,0,161.969,248.139Zm-43,145.712c.023-.05.042-.037.06,0Zm-17.454-103.5,19.035-1.94-3.072,25.979-16.776-.031Zm-40.582,4.134.649,19.8-14.229-.027-1.39-18.248Zm-27,2.751,9.122-.929,1.369,17.947-9.715-.018Zm.909,19.919,9.8.018L45.819,332.6l-10.294-.43Zm1.626,35.627L35.658,335.1l10.384.434,1.382,18.133Zm12.29-20.052-1.185-15.551,14.1.026.527,16.087Zm1.614,21.18-1.39-18.25,13.315.556.612,18.712Zm28.522,2.313-13.055-1.059-.617-18.826,13.992.584ZM79.26,334l-14.136-.591-.531-16.2,14.945.027Zm.327-19.685L64.5,314.288l-.659-20.1,16.108-1.642Zm16.723,43.318-14.5-1.176.322-19.416,14.857.62Zm.776-22.889-14.908-.623.28-16.882,15.22.028Zm.692-20.395-15.271-.028.365-22.006c0-.024-.011-.044-.012-.068l15.721-1.6Zm14.456,44.576L99.221,357.87l.68-20.087,14.732.616-2.411,20.4A1.215,1.215,0,0,0,112.232,358.925ZM100,334.866l.6-17.594,16.531.031-2.15,18.188Zm30.228,18.221a8.632,8.632,0,0,1-7.193,6.494,1.458,1.458,0,0,0-.409.053,8.679,8.679,0,0,1-1.517.01l-6-.486c0-.007.006-.012.007-.02l2.437-20.617,16.112.672Zm4.157-16.785-16.485-.688,2.165-18.3,19.015.035Zm5.406-21.828a1.286,1.286,0,0,0-.229-.048l-19.152-.035,3.108-26.288,23.4-2.384Z" transform="translate(-30.422 -244.147)" fill="#292929" fill-rule="evenodd"/>
      </g>
      <g id="Group_37722" data-name="Group 37722" transform="translate(104.576)">
        <g id="Group_37714" data-name="Group 37714" transform="translate(66.394)">
          <path id="Path_10840" data-name="Path 10840" d="M187.789,145.375c1.936-7.428,18.981-4.344,23.5-2.976,0,0,10.659,2.451,11.551,18.438,0,0-.147,19.576,11.577,26.186,0,0,23.9,14.382-7.987,26.058l-16.25-25.13L196.1,196.477s-14.127-.86-14.829-21.322c-.264-7.688,2.136-18.369,8.433-23.647a6.946,6.946,0,0,1-2.093-4.914A5.64,5.64,0,0,1,187.789,145.375Z" transform="translate(-181.255 -140.588)" fill="#1f2040" fill-rule="evenodd"/>
          <g id="Group_37713" data-name="Group 37713" transform="translate(4.917 10.326)">
            <path id="Path_10841" data-name="Path 10841" d="M190.71,150.472a14.118,14.118,0,0,0-3.323,6.256c-1.133,4.427-2.579,10.843-1.29,15.35a5.455,5.455,0,0,0,2.386,3.3c1.986,1.129,4.217.285,6.873.043,1.448,3.863,1.67,4.115,2.221,5.691,1.641,4.69,1.882,5.415,3.331,9.519,0,0,7.212-4.434,12.584-3.832l-7.79-15.052-1.229-2.18s7.086-4.911,5.22-9.006c0,0-2.139-3.306-6.266,1.027a25.205,25.205,0,0,1-6.915-3.972c-.794-.68-6.177-6.87-5.01-7.927Q191.083,150.07,190.71,150.472Z" transform="translate(-185.591 -149.694)" fill="#ffa481" fill-rule="evenodd"/>
            <path id="Path_10842" data-name="Path 10842" d="M191.426,174a9.124,9.124,0,0,1-3.428-.6.507.507,0,0,1,.4-.93c.262.112,6.255,2.566,12.924-4.369a.507.507,0,1,1,.731.7C197.972,173.053,194.077,174,191.426,174Z" transform="translate(-185.309 -147.249)" fill="#000563"/>
            <path id="Path_10843" data-name="Path 10843" d="M202.338,165.9a.507.507,0,0,1-.05-1.012,2.143,2.143,0,0,0,1.754-1.463l-1.241-1.281a1.231,1.231,0,0,1-.387-.68c-.084-.607.407-1.084,1.25-1.218l1.176-.187a.507.507,0,0,1,.16,1l-1.176.187a1.159,1.159,0,0,0-.366.117l.073.075,1.432,1.48a.507.507,0,0,1,.136.434,3.145,3.145,0,0,1-2.709,2.545Z" transform="translate(-183.415 -148.306)" fill="#000563"/>
          </g>
        </g>
        <path id="Path_10844" data-name="Path 10844" d="M222.8,212.315l-3.138,28.465s-29.456,24.7-72.058,11.282c-2.1-3.214-5.338-4.072-7.722,1.313a24.067,24.067,0,0,1-.528-5.476c.083-2.864,8.074-2.8,8.074-2.8l2.686,2.393c12.919-4.478,44.432-16.976,44.432-16.976l2.1-21.162Z" transform="translate(-120.475 -131.375)" fill="#e88a80" fill-rule="evenodd"/>
        <g id="Group_37718" data-name="Group 37718" transform="translate(0 128.428)">
          <g id="Group_37716" data-name="Group 37716">
            <g id="Group_37715" data-name="Group 37715" transform="translate(0 134.634)">
              <path id="Path_10845" data-name="Path 10845" d="M143.465,372.569l-4.5,13.222-4.953.933s2.261,9.626,15.2,6.49c0,0,1.7-4.906,6.707-16.036Z" transform="translate(-121.19 -372.569)" fill="#ffa481" fill-rule="evenodd"/>
              <path id="Path_10846" data-name="Path 10846" d="M135.7,385.024l-13,1.819s14.57,6.949,27.184,7.459l1.94-5.034s-6.942-1.191-11.257-2.51" transform="translate(-122.705 -370.9)" fill="#5b5d9d" fill-rule="evenodd"/>
            </g>
            <path id="Path_10847" data-name="Path 10847" d="M240.262,253.842s4.4,6.219-7.4,25.888S185.7,325.865,185.7,325.865l-29.261,71.87s-10.114,2.249-16.858-6.181c6.181-32.592,19.106-84.291,19.106-84.291L192.4,263.433Z" transform="translate(-120.444 -253.842)" fill="#4dc452" fill-rule="evenodd"/>
          </g>
          <g id="Group_37717" data-name="Group 37717" transform="translate(82.638 0.024)">
            <path id="Path_10848" data-name="Path 10848" d="M256.961,377.6l8.847,10.806-1.826,4.7s9.367,3.167,13.543-9.473c0,0-3.267-4.037-10.069-14.17Z" transform="translate(-187.355 -238.375)" fill="#ffa481" fill-rule="evenodd"/>
            <path id="Path_10849" data-name="Path 10849" d="M263.839,391.524l-5.326,12s13.6-8.7,20.7-19.135l-3.248-4.307s-4.68,5.263-8.08,8.229" transform="translate(-187.147 -236.953)" fill="#5b5d9d" fill-rule="evenodd"/>
            <path id="Path_10850" data-name="Path 10850" d="M236.344,330.018l1.941-40.738s1.686-15.173-2.248-35.4c-.082-.422-11.424,9.25-25.813,11.784-2.7.475-5.415.8-8.016,1.011l-6.63.691,10.489,72.789,60.876,60.391s10.226-6,13.486-14.048C280.431,386.5,269.755,365.141,236.344,330.018Z" transform="translate(-195.579 -253.863)" fill="#4dc452" fill-rule="evenodd"/>
          </g>
          <path id="Path_10851" data-name="Path 10851" d="M201.52,307.749a.508.508,0,0,1-.5-.45l-3.653-31.749a.507.507,0,0,1,.447-.561.5.5,0,0,1,.561.446l3.653,31.749a.517.517,0,0,1-.5.566Z" transform="translate(-112.703 -251.009)" fill="#fff"/>
          <path id="Path_10852" data-name="Path 10852" d="M200.318,293.762a.5.5,0,0,1-.294-.1,25.115,25.115,0,0,1-8.325-10.057.507.507,0,0,1,.941-.378,24.553,24.553,0,0,0,7.972,9.609.507.507,0,0,1-.295.921Z" transform="translate(-113.466 -249.947)" fill="#fff"/>
        </g>
        <path id="Path_10853" data-name="Path 10853" d="M175.767,222.069c-.407,2.88,1.251,5.01,6.946,5.062,4.29,18.545.184,48.707.184,48.707,30.734,7.684,61.813-4.5,61.813-4.5-8.429-41.022-20.514-83.2-20.619-83.547-5.058-16.858-26.867,2.326-26.867,2.326-9.117,13.227-14.657,20.1-14.657,20.1-1.142,1.471-2.207,3.174-2.752,4.035C178.042,217.044,176.1,219.722,175.767,222.069Z" transform="translate(-115.604 -135.192)" fill="#5b5d9d" fill-rule="evenodd"/>
        <g id="Group_37721" data-name="Group 37721" transform="translate(19.633 46.352)">
          <g id="Group_37719" data-name="Group 37719" transform="translate(0 39.032)">
            <path id="Path_10854" data-name="Path 10854" d="M229.71,222.7l-7.338,27.68s-34.642,21.061-74.772,1.447c-.223-3.567-6.02-4.682-7.582.223a38.459,38.459,0,0,1,.493-6c.508-2.819,8.4-1.565,8.4-1.565l2.3,2.766c13.441-2.506,47.848-10.752,47.848-10.752l5.225-20.615Z" transform="translate(-140.018 -215.884)" fill="#ffa481" fill-rule="evenodd"/>
            <path id="Path_10855" data-name="Path 10855" d="M204.782,238.89a.505.505,0,0,1-.336-.126l-.184-.163a16.287,16.287,0,0,0-7.411-3.493,24.6,24.6,0,0,0-4.689-.562.507.507,0,1,1,.024-1.014,25.634,25.634,0,0,1,4.883.585,17.263,17.263,0,0,1,7.862,3.723l.186.163a.507.507,0,0,1-.336.887Z" transform="translate(-133.098 -213.52)" fill="#000563"/>
          </g>
          <g id="Group_37720" data-name="Group 37720" transform="translate(60.231)">
            <path id="Path_10856" data-name="Path 10856" d="M206.65,188.656s4.517-10.569,12.723-6.083,11.813,13.2,9.164,28.618-4.971,22.35-4.971,22.35l-29.986-9.7s5.082-15.788,7.272-21.81C204.421,192.223,206.65,188.656,206.65,188.656Z" transform="translate(-193.073 -181.464)" fill="#5b5d9d" fill-rule="evenodd"/>
            <path id="Path_10857" data-name="Path 10857" d="M219.508,231.14a.52.52,0,0,1-.154-.024l-25.868-8.264a.506.506,0,0,1-.325-.649l10.134-29.386a.507.507,0,1,1,.958.331l-9.964,28.9,25.374,8.1a.508.508,0,0,1-.154.991Z" transform="translate(-193.133 -179.988)" fill="#000563"/>
            <path id="Path_10858" data-name="Path 10858" d="M221.208,225.3a.507.507,0,0,1-.562-.613l3.777-16.785a.507.507,0,0,1,.99.222l-3.777,16.785A.509.509,0,0,1,221.208,225.3Z" transform="translate(-189.448 -177.975)" fill="#000563"/>
          </g>
        </g>
      </g>
    </g>
  </g>
</svg>
