<svg xmlns="http://www.w3.org/2000/svg" xmlns:xlink="http://www.w3.org/1999/xlink" width="52" height="52" viewBox="0 0 52 52">
  <defs>
    <filter id="Ellipse_217" x="0" y="0" width="52" height="52" filterUnits="userSpaceOnUse">
      <feOffset dy="3" input="SourceAlpha"/>
      <feGaussianBlur stdDeviation="3" result="blur"/>
      <feFlood flood-opacity="0.161"/>
      <feComposite operator="in" in2="blur"/>
      <feComposite in="SourceGraphic"/>
    </filter>
    <clipPath id="clip-path">
      <path id="Path_2802" data-name="Path 2802" d="M16.953,0A16.953,16.953,0,1,1,0,16.953,16.953,16.953,0,0,1,16.953,0Z" fill="none" style="mix-blend-mode: multiply;isolation: isolate"/>
    </clipPath>
  </defs>
  <g id="Group_1643" data-name="Group 1643" transform="translate(9.093 6)">
    <g transform="matrix(1, 0, 0, 1, -9.09, -6)" filter="url(#Ellipse_217)">
      <g id="Ellipse_217-2" data-name="Ellipse 217" transform="translate(9 6)" fill="rgba(24,15,70,0.06)" stroke="#fff" stroke-width="2">
        <circle cx="17" cy="17" r="17" stroke="none"/>
        <circle cx="17" cy="17" r="16" fill="none"/>
      </g>
    </g>
    <g id="Mask_Group_14" data-name="Mask Group 14" clip-path="url(#clip-path)" style="mix-blend-mode: multiply;isolation: isolate">
      <g id="Group_1610" data-name="Group 1610" transform="translate(4.168 8.525)">
        <g id="Ellipse_215" data-name="Ellipse 215" transform="translate(6.441)" fill="#28a745" stroke="#28a745" stroke-width="2.5">
          <circle cx="6.627" cy="6.627" r="6.627" stroke="none"/>
          <circle cx="6.627" cy="6.627" r="5.377" fill="none"/>
        </g>
        <path id="Path_2799" data-name="Path 2799" d="M-7270.317-457.581v-8.825s2.17-3.722,12.644-3.687,12.744,3.688,12.744,3.688v8.825" transform="translate(7270.317 486.803)" fill="#28a745" stroke="#28a745" stroke-width="2.5"/>
      </g>
    </g>
  </g>
</svg>
